<?xml version="1.0" encoding="utf-8"?>
<!-- Generator: Adobe Illustrator 26.4.1, SVG Export Plug-In . SVG Version: 6.00 Build 0)  -->
<svg version="1.1" id="Layer_1" xmlns="http://www.w3.org/2000/svg" xmlns:xlink="http://www.w3.org/1999/xlink" x="0px" y="0px"
	 viewBox="0 0 419.2 201.9" style="enable-background:new 0 0 419.2 201.9;" xml:space="preserve">
<path style="fill:#321A81;" d="M302.4,102.2c-2,1-3,2-3,2c-0.7,0-0.3,0-1,0c-1,0-2,0-3,0c-2.1,0.1-3.3-0.5-4-1c-0.8-0.5-1-1-2-2
	c-1.1-1.1-1.7-1.2-2-2s-0.1-1.5,0-2s0.3-1.3,1-2c0.8-0.8,2-1,2-1s1.7-0.8,3-1c0.6-0.1,1.2-0.1,1.7,0c0.2,0,0.5,0,0.7,0h2
	c0.4,0,0.9-0.2,1.2-0.5c0.2-0.2,0.3-0.3,0.5-0.5c0.9-0.9,0.9-0.9,1-1c0.7-0.7,0.8-1.7,1-3c0.1-0.7,0.2-1.6,0.1-2.7
	c0.3-0.7,0.6-1.6,0.9-2.3l0.6-0.6c0.2-0.2,0.4-0.6,0.4-0.9c0-0.4,0-0.9-0.1-1.5c-0.2-1-0.8-1.7-1-2c-0.6-0.7-0.7-0.5-1.1-1.1
	c-0.5-0.9-0.5-2,0-2.8c0.3-0.6,0.5-0.4,1.1-1.1c0.2-0.3,0.8-1,1-2c0.1-0.6,0.1-1.2,0.1-1.7c0-0.3-0.1-0.6-0.1-0.9v-3.4
	c-0.2-1.8-0.6-3.1-1-4c-0.5-1.2-1-1.8-1-3c0-1,0.3-1.5,0-2s-1-1.1-3.5-1c-0.9-0.3-1.7-0.7-2.5-1l-2-2c-0.7-0.4-1.7-0.8-3-1
	c-1.2-0.2-1.7,0.1-3,0c-1.8-0.1-2-0.6-4-1c-2.1-0.4-3.7-0.2-5,0c-2,0.3-3,0.4-4,1c-1.4,0.8-1.7,1.8-3,2c-0.9,0.1-1.2-0.3-2,0
	c-0.9,0.3-1,1-2,2c-1.3,1.3-1.7,0.8-3,2c-0.5,0.5-0.4,0.6-2,3c-0.3,0.5-0.9,1.3-2,3c-1.9,2.8-1.9,2.7-2,3c-0.4,0.8-1.3,2.7-1,5
	c0,0.3,0.4,1.2,1,3c0.4,1.1,0.6,1.5,1,2c0.5,0.5,0.7,0.5,1,1s0.4,1.4,0,2c-0.5,0.7-1.5,0.3-2,1c-0.4,0.6-0.2,1.4,0,2
	c0.4,1.3,1.1,2.1,2,3c1.1,1.1,1.4,1.1,2,2c0.7,1,0.7,1.6,1,2c0.6,0.9,2.6,1.5,8.6-0.2c0.1,0.1,0.2,0.1,0.4,0.2c0.3,0.7,0.7,1.3,1,2
	c0,0.4,0,0.6,0,1c-0.3,0.7-0.7,1.3-1,2c-0.4,0.7-1,2-1,2c-1.9,3.8-1.8,3.6-2,4c-0.2,0.6-0.9,2.1-1,4c-0.2,2.7,0.7,3.6,1,7
	c0.2,1.7,0.1,3.1,0,4v5c-0.2,0.5-0.5,1.2-1,2c-0.7,1-1.5,1.6-2,2c-1,0.8-1.7,1.9-3,4c-1.1,1.7-2.2,3.5-3,6c-0.3,1.1-1,3.2-1,6
	c0,2.5,0.5,4.5,1,6c0.5,1.7,1,2.9,2,5c1.2,2.6,2.1,4.3,3,6c1,1.9,2.4,4.6,4,8c0.1,0.7,0.2,1.8,0,3c-0.1,0.6-0.3,1.3-1,3
	s-1.1,2.5-2,4c-1,1.7-1.4,5.3,1,14c0.2,0.6,0.3,1.3,0,2c-0.3,0.5-0.6,0.6-1,1c-0.8,0.8-1.2,2.1-1,3c0.3,1.6,2.3,2.3,4,3
	c1.1,0.4,2.9,1,5.2,1c0.4,0,0.9,0.1,1.3,0.4c0.4,0.3,0.9,0.5,1.5,0.6c1.6,0.3,2.9-0.3,3.6-0.7c0.3-0.2,0.7-0.2,1-0.2
	c0.6,0.1,1.5,0.2,2.4-0.1c2.1-0.7,2.9-2.7,3-3s0.5-1.5,0-2c-0.5-0.6-1.9-0.5-3.4,0.6c-0.8,0-1.5,0-2.3,0c-1.4-1-2.9-2.1-4.3-3.5
	c-0.3-0.3-0.7-0.7-1-1c-0.2-0.2-0.4-0.4-0.6-0.6c-0.2-0.2-0.4-0.5-0.4-0.9v-2.5c0-2,0.3-4.4,1-7c0.3-1,0.6-1.9,0.9-2.7
	c0.1-0.2,0.2-0.4,0.4-0.6c0.6-0.6,1.2-1.2,1.7-1.7c0.8-0.9,2.6-2.9,3-6c0.1-0.9,0.1-1.7,0.1-2.4c0-0.4,0.2-0.8,0.5-0.9l0.7-0.4
	c0.4-0.2,0.9-0.2,1.3,0.1c1.5,1.2,2.9,2.4,4.4,3.5c0.3,0.7,0.7,1.7,1,3c0.8,3.3,0.1,4.3,1,7c0.5,1.4,1.1,2.4,2,4
	c0.6,1.1,1.2,2,1.7,2.7c0.2,0.2,0.2,0.5,0.2,0.8c-0.1,1.1,0,1.9,0,2.6c0.2,1.3,0.3,2.2,1,3c0.7,0.7,1.6,0.9,2,1c2,0.4,3.6-0.7,4-1
	c0.3-0.3,0.5-0.5,0.8-0.8c0.1-0.1,0.4-0.2,0.6-0.2c1,0.1,1.9,0,2.7,0c2.1-0.1,3.2-0.2,4-1c0.6-0.6,0.9-1.4,1-2c0.7-0.7,1.3-1.3,2-2
	c0.3-0.3,0.7-0.7,1-1c0.2-0.1,0.7-0.4,1-1c0.5-1,0.1-1.9,0-2c-0.1-0.2-0.4-0.8-1-1c-0.1,0-0.4-0.1-1,0c-0.4,0.1-1,0-2,1
	c-0.3,0.3-0.8,1.4-2,2c-1.9,0.9-3.7,0.1-4,0c0,0,0,0-0.1,0c-1.1-1.1-2.3-2.3-3.4-3.4c-0.3-0.3-0.5-0.8-0.5-1.3v-2.2c0-4,0-8,0-12
	c0.1-0.5,0.4-1.7,0-3c-0.3-0.9-0.7-1.6-1-2c-1-1.3-2-2.7-3-4c-0.8-0.7-2.1-2-3-4c-0.6-1.4-0.9-2.7-1-3.6c0-0.2,0.1-0.5,0.1-0.7
	c0.9-1.9,1.9-3.8,2.8-5.7c0.6-1.2,1.4-2.9,2-5c0.2-0.5,0.7-2.5,1-6c0.2-1.9,0.3-4.2,0.1-7.1c0-1-0.2-1.9-0.7-2.8
	c-0.2-0.5-0.5-1.3-0.5-2.1c0-0.4,0-1.3,0.6-2.4c0.2-0.4,0.6-0.7,1-0.9c0.5-0.2,1-0.5,1.4-0.7c0.8-0.5,1.8-1.2,3-2
	c1.6-1.2,2.7-1.9,4-3c1.2-1,1.5-1.5,4-4c1.3-1.3,2.3-2.3,3-3c0.8-0.2,1.5-0.5,2-1c1.1-1,1-2,2-3c0.5-0.5,1.2-0.8,2-1
	c0.2-0.1,0.7-0.4,1-1c0.2-0.4,0.2-0.8,0.2-1.2c0-0.5-0.5-0.8-0.9-0.8h-0.3c-0.6,0.2-1.1,0.5-1.7,0.7l-1.1,1.1
	c-0.1,0.1-0.3,0.2-0.5,0.3c-0.4,0.1-1,0.2-1.7-0.1c-0.6-0.3-0.9-0.8-1-1c0,0-1-0.9-1-2c0-0.8,0.5-1.4,1-2c0.3-0.4,0.7-0.7,0.9-0.9
	c0.3-0.1,0.5-0.3,0.8-0.4c0.9-0.4,1.7-1.1,2.1-2c0.1-0.2,0.2-0.4,0.2-0.6c0.2-0.7,0.1-0.9,0-1c-0.2-0.2-0.5-0.1-1,0
	c-1.1,0.2-1.2-0.1-2,0c-0.7,0.1-1.2,0.5-2,1c-0.5,0.4-1.3,1-2,2c-0.6,0.2-1.9,0.6-3,2l0,0c-0.6,0.8-1,1.9-1,2.9v2.4
	c0,0.5,0.1,1,0.3,1.4c0.2,0.4,0.4,0.9,0.7,1.3"/>
<path style="fill:#097BB8;" d="M224.4,163.2c-0.6-0.2-1-0.9-1-1.6c0-0.3-0.2-0.5-0.3-0.7l0,0c-0.4-0.4-1.3,0-1.6,0.4l-0.6,0.6
	c-0.3,0.3-0.6,0.4-1,0.4h-6.4c-0.8,0.1-1.6-0.3-2-1c-0.3-0.5-0.3-1-0.2-1.4c0.1-0.6,0.2-1.3,0.2-2v-3.3c0-0.2,0.1-0.4,0.2-0.6
	c0.2-0.5,0.5-1,0.7-1.5c0.1-0.1,0.2-0.3,0.3-0.3c0.3-0.2,0.6-0.4,0.8-0.9c0.4-0.9,0-2.2-1-3c-0.7-0.4-0.9-0.8-1-1
	c-0.6-1.3,1.1-3,2-4c0.8-0.8,1.6-1.7,3-2c1-0.2,1.7-0.1,2,0c0.8,0.2,1.4,0.6,1.8,0.8c0.2,0.1,0.4,0.2,0.6,0.3
	c0.5,0.3,1.1,0.5,1.6,0.8c0.8,0.2,1.5,0.1,2,0c2.6-0.6,4.5-4,5-8.5c0.3-0.5,0.7-1.1,1-1.5c0.6-0.3,0.9-0.8,1-1c0.6-1.1,0.2-2.7-1-4
	l-0.5-1c-0.3-0.6-0.2-1.3,0.3-1.7c0.4-0.3,0.8-0.8,1.2-1.3c0.3-0.4,0.6-1,1-2c0.9-2.4,1-4.6,1-5c0.1-3.2-0.8-5.5-1-6
	c-1.3-3.3-4.7-4.4-6-7c-0.1-0.1-0.5-1-0.8-1.6c-0.1-0.2-0.4-0.3-0.6-0.2l-1.4,0.7c-0.1,0.1-0.3,0.1-0.4,0.1h-2.6
	c-0.1,0-0.3,0-0.4-0.1c-0.7-0.3-1.6-0.7-2.8-0.9c-1.1-0.2-1.9-0.1-3,0c-3.1,0.2-3.1-0.2-5,0c-1.2,0.1-3.7,0.4-6,2
	c-0.8,0.5-0.3,0.4-3,3c-1.7,1.6-2.1,2-3,3c-0.7,0.9-1.4,1.7-2,3c-0.7,1.6-0.9,2.9-1,4c-0.2,1.3-0.2,3.3,0.3,5.6
	c-0.1,0.1-0.1,0.2-0.2,0.3c-0.7,0.3-1.1,1-2.1,1l0.8,0.8c0.1,0.1,0.2,0.2,0.4,0.2h0.8c0.2,0.1,0.4,0.2,0.6,0.3
	c0.7,1.1,1.1,2,1.4,2.7c0.4,0.9,0.5,1.4,1,2c0.4,0.6,0.9,0.9,1,1c0.7,0.6,1.1,2.2,0,6.8c-0.3,0.3-0.6,0.6-0.9,0.9
	c-1.3,0.3-2.6,0.6-3.8,1c-0.9,0.2-1.7,0.6-2.4,1.1c-1.2,0.8-2.5,1.5-3.9,2.3c-0.7,0.4-1.4,0.7-2.1,1c-0.5,0.2-1.1,0.3-1.6,0.5
	c-1.2,0.1-2.1,0.7-3,1.3c-0.1,0.1-0.2,0.1-0.3,0.2c-1.1,0.6-2.3,0.2-3,0c-0.9-0.3-1.3-0.6-2-1c-1.2-0.6-2.2-0.8-4-1
	c-2.1-0.3-6.1-0.4-11.3-0.1c-1.2,0.1-2.5,0.4-3.6,0.9c-0.7,0.3-1.4,0.7-2.1,1.2c-1.8,1.1-3.5,2.1-5,4c-2.5,3.1-2.9,6.6-3,8
	c-0.1,1.5-0.2,3.8,1,6c0.3,0.5,0.5,0.8,2,3c0.6,0.8,1.1,1.6,1.5,2.2c0.4,0.5,0.5,1.2,0.5,1.8v1c-0.2,0.5-0.5,1.3-1,2
	c-0.3,0.5-1,1.3-2,2c-0.4,0.3-1.1,0.7-2,1c-0.5,0.1-1.4,0.3-3,0c-1.1-0.2-2.9-0.7-5-2c-1.3-0.7-2.7-1.3-4-2c-1-0.4-2.3-0.8-4-1
	c-1.2-0.1-2.2-0.1-3,0c-0.2,0-1.8,0.2-3-1c-0.5-0.5-0.8-1.1-0.9-1.5c-0.1-0.5-0.4-0.9-0.9-1.2c-0.3-0.2-0.7-0.3-1.3-0.3
	c-0.1,0-1.3,0-2,1c-2.7,2.7-5.3,5.3-8,8c-0.7,0.8-0.9,1.6-1,2c-0.1,0.6,0,0.9,0,1c0.2,0.6,0.7,0.9,1,1c1.1,0.4,2.4-0.6,3-1
	c1.4-1,3.5-2.3,6.7-3.9c0.3,0,0.6,0,0.9,0c1.9,1.2,3.4,2.2,4.3,2.8c1.5,1,2,1.5,3,2c1.2,0.6,2.3,0.9,3,1v4.3c-0.9,1-1.5,1.5-2.4,2.5
	c-2,0.1-3.1,0.7-3.6,1.2c-0.2,0.2-0.3,0.3-1,1c-0.4,0.4-1,1-1,1c0,0.1-0.2,0.5,0,1s0.6,0.9,1,1c0.7,0.2,1.6-0.2,2-1
	c0.5-0.3,1.1-0.7,2-1c1.3-0.4,2.4-0.3,3.2-0.2c0.6,0.1,1.2,0.1,1.7,0c1.4-0.3,2.7-0.5,4.1-0.8c3.9,0.1,7.7,0.1,11.6,0.1
	c1.7,0.4,3.5,0.7,5.4,0.9c6,0.6,11.2,0,15.3-0.8c0.4-0.1,0.9-0.2,1.3-0.2c1.1-0.1,2.9-0.5,4.4-2c2.7-2.5,3.1-7.2,0.8-11.3
	c-0.2-0.5-0.3-0.9-0.5-1.4c-0.1-0.6-0.3-1.2-0.7-1.7c-0.2-0.4-0.5-0.9-0.7-1.6c-0.1-0.5-0.1-0.9-0.1-1.3c0-0.4,0.3-0.8,0.6-1l1-0.5
	c0.3-0.1,0.6-0.2,0.9-0.2h12.5c0.7,0,1.4-0.1,2.1-0.3c0.8-0.2,1.4-0.5,1.9-0.7c0.8-0.3,1.4-0.6,2-1c1-0.7,1.6-1.5,2-2h0.1
	c0.8,0,1.6,0.6,1.7,1.4c0.4,1.9,0.7,3.7,1.1,5.6c0.2,0.7,0.5,1.8,1,3c1.2,2.7,2.7,4.6,4,6c0.6,0.7,1.5,1.7,2.7,2.7
	c0.2,0.2,0.4,0.4,0.5,0.7l0.8,1.6c0.1,0.3,0.2,1.2,1,2c1.2,1.2,2.8,1,3,1h5.3c0.4,0,0.8-0.1,1.2-0.3s0.9-0.5,1.6-0.7
	c0.4-0.1,0.7-0.1,1-0.1c0.5,0,1-0.4,1-1l0,0c0-0.5-0.3-1-0.8-1.2c-0.4-0.2-0.8-0.4-1.2-0.7c-0.6-0.5-0.5-0.6-1-1c-1-0.8-2.1-0.9-3-1
	c-0.5-0.1-1.2-0.1-2,0c-0.2-0.1-0.4-0.2-0.6-0.3l-2.3-4.7c-0.4-1.3-0.9-3-1-5c-0.1-0.8-0.1-1.6,0-2.4c0-0.4,0.3-0.8,0.6-1
	c0.6-0.3,1.4-0.6,2.4-0.7c0.6-0.1,1.1-0.1,1.6,0c0.4,0,0.7,0,1.1-0.1c0.7-0.2,1.5-0.4,2.3-0.8c1.1-0.5,1.9-1.1,2.6-1.6
	c0.3-0.2,0.6-0.4,1-0.4h1.4h1.2c0.4,0,0.9,0.2,1.2,0.5c0.2,0.2,0.4,0.3,0.6,0.5c1,0.6,2.1,0.2,3,0c1.1-0.3,1.7-0.8,2-1
	c0.1-0.1,0.2-0.2,0.3-0.3c0.5-0.5,1.3-0.7,2-0.7h0.7c0.7,0,1.3,0,2,0c0.1-0.1,0.9-0.4,1-1c0.1-0.7-0.5-1.5-1.6-1.9
	c-0.4-0.1-0.7-0.3-0.9-0.6l-1.4-1.4c-0.1-0.1-0.2-0.2-0.3-0.2c-0.5-0.3-1.5-0.9-2.9-0.9s-2.5,0.7-3,1c-0.7,0.5-1.2,1-1.6,1.4
	c-0.3,0.4-0.7,0.6-1.2,0.6"/>
<path style="fill:#FF81A3;" d="M85.7,121.2h-6c-1.6,0-3.2,0.5-4.5,1.5c-1.2,0.9-2.1,1.7-2.8,2.5c-0.9,0.9-3,2.9-4,5
	c-0.1,0.1-0.5,1-0.8,1.5c-0.2,0.3-0.5,0.5-0.8,0.5h-0.5c-0.5,0-0.9,0.5-0.8,1l0.7,3.3c0.1,0.4-0.1,0.8-0.5,0.9
	c-0.4,0.1-0.9,0.4-1.4,0.8c-0.6,0.6-0.8,1.4-1,2c-0.4,1.5-0.1,2.7,0,3c0.2,0.6,0.4,1.4,1,2c0.7,0.7,1.5,0.9,2,1c0.7,0.2,1.3,0.3,2,0
	c0.6-0.3,0.9-0.7,1-1c0.2,0,0.6-0.1,1,0c1.7,0.2,2.7,1.6,3,2c1.2,1.6,1.1,3.4,1,4c-0.2,2.1-1.5,3.5-2,4c-0.1,0.1-0.7,0.7-2,2
	c-1,0.9-0.9,0.9-1,1c-0.2,0.2-1,1.1-2,3c-0.8,1.5-0.6,1.5-1,2c-0.8,1.1-1,1-3,2c-0.5,0.2-1.1,0.7-2,1c-0.5,0.2-1.6,0.4-4,0
	c-0.8-0.1-1.9-0.4-4-1c-2.3-0.6-3.4-0.9-4-1c-0.5-0.1-2-0.2-4,0c-1.4,0.2-2.7,0.3-4,1c-3,1.5-4.2,4.8-5,7c-0.6,1.6-0.9,3.1-1,4
	c-0.3,1.8-0.6,3.6-0.9,5.4c-0.2,0.9-1,1.6-1.9,1.6h-0.9c-0.2,0-0.4-0.1-0.6-0.2l-3.5-3.5c-1.1-1.5-2.2-3-3.3-4.6l0,0
	c-0.2-1.3-0.7-2.2-1-2.7c-0.4-0.7-0.8-0.9-1-1c-0.6-0.3-1.3-0.3-2,0c-0.6,0.3-0.9,0.8-1,1c-1.7,1.7-3.3,3.3-5,5
	c-0.7,0.3-1.3,0.7-2,1c-0.2,0.1-0.7,0.4-1,1s-0.5,1.6,0,2c0.3,0.2,0.5-0.1,1,0c0.5,0.2,0.6,0.7,1,1c0.3,0.2,0.9,0.4,2,0
	c0.3-0.3,0.6-0.6,0.9-0.9l0.1-0.1c0.4-0.3,1.1-0.7,1.9-0.9c0.9-0.3,2.1-0.6,3,0c0.8,0.6,1,2,1,2c0.3,0.8,0.5,1.6,0.8,2.4
	c0.1,0.4,0,0.9-0.2,1.2c-0.6,0.7-1.1,1.1-1.6,1.4c-0.6,0.4-1.1,0.8-2,1c-0.8,0.2-1.6,0.1-2,0h-1.9c-0.7,0-1.4-0.3-1.8-0.8l-0.2-0.2
	c-0.7-0.7-0.7-0.8-1-1c-0.8-0.4-1.7-0.1-2,0c-1.3,0.5-1.9,1.7-2,2L8,188.5c-0.5,0.5-1.2,0.8-1.9,0.8H5.4c-0.1,0-0.5-0.2-1,0
	c-0.7,0.2-1,0.9-1,1s-0.2,0.5,0,1c0.2,0.7,1,2,1,2s-0.2-0.5,0,0s0.6,0.9,1,1c0.2,0.1,0.5,0.1,1,0c0.8-0.2,1.1-0.5,2-1
	c0.9-0.6,1.4-0.9,2-1c0.8-0.2,1.5-0.1,2,0c0.5,0.2,1,0.3,1.6,0.5c1,0.2,2,0.3,2.9,0.5c19.2,0,21,0,23.5,0c15.6-0.1,17.5,0.3,21-1
	c1.8-0.7,4.4-1.9,7.2-4.3c0.5-0.4,1.1-0.8,1.6-1c0.3-0.2,0.7-0.4,1.1-0.6c0.3-0.2,1.7-1.2,3-3c1.1-1.6,1-2.2,2-3
	c0.4-0.3,1.1-0.9,2-1c1.6-0.2,2.7,0.8,3,1c1,1,2,2,3,3s2,2,3,3c0.7,0.7,1.4,1.4,2.1,2.1c0.3,0.5,0.8,1.2,1.1,1.7
	c0.1,0.4,0.4,0.8,0.8,1.1c0.7,0.7,1.5,0.9,2,1c0.7,0.1,1.3,0.1,2,0c1.8-0.3,2.2-0.9,4-1c0.4,0,0.7,0,1,0c1.6,0.2,2.1,1.2,3,1
	c0.5-0.1,0.9-0.6,1-1c0.2-0.8-0.7-1.7-1-2c-1-1-2.7-1-6-1c-0.2,0-0.5,0.1-1,0c-0.9-0.1-1.6-0.6-2-1c-3.2-3.6-6.3-7.9-9-13
	c-0.2-0.3-0.3-0.6-0.5-0.9c-0.3-0.7-0.5-1.4-0.5-2.2c0.1-1.6,0-2.9,0-3.9c-0.1-2-0.3-3.2,0-5c0.2-0.8,0.2-2,1-3c0.3-0.5,0.7-0.8,1-1
	l1-0.5c0.6-0.3,1.3-0.5,2-0.5h4c0.8,0,1.6-0.4,2-1.1c0.5-0.8,1.1-1.6,1.6-2.4c0.2-0.4,0.4-0.8,0.6-1.2c0.3-0.8,0.5-1.6,0.8-2.4
	c0.3-1,0.7-2,1-3l0.5-1c0.3-0.6,0.3-1.3-0.1-1.9l-1.4-2.1c-0.1-0.4-0.2-1.1,0-2c0.2-1,0.7-1.7,1-2c0.3-0.4,0.7-1.1,1-2
	c1.1-3.6-1.3-7.1-2-8c-0.5-0.7-1.3-1.7-2.6-2.7c-0.8-0.6-1.3-1.5-1.4-2.5c0-0.7,0-1.3,0-1.8s0.1-0.7,0-1c-0.2-0.6-1.1-0.9-2-1v0.6
	c0,0.3-0.1,0.6-0.3,0.8c-0.2,0.2-0.4,0.4-0.7,0.6c-1.1,0.7-2.3,0.5-3.1,0.3C87.4,121.3,86.6,121.2,85.7,121.2z"/>
<path style="fill:#2E8E00;" d="M414,76.9l-19.7-14.1c-0.4-0.3-0.9,0-0.9,0.5v6.8c0,0.5-0.5,0.7-0.9,0.5c-2.2-1.4-4.3-2.7-6.5-4.1
	c-0.3-0.2-0.7-0.1-0.9,0.3c-1.6,4.4-3.1,8.8-4.7,13.2c0,0.1-0.1,0.2-0.2,0.3c-3.1,2.5-6.2,5-9.4,7.5c-0.3,0.2-0.3,0.6,0,0.9l2.5,2.5
	c-0.2,0.3-0.6,0.7-1,1c-0.3,0.2-1,0.7-2,1c-0.6,0.2-1.8,0.5-3,0c-0.9-0.4-1-0.9-3-3c-0.3-0.3-0.6-0.6-0.8-0.8
	c-0.1-0.1-0.2-0.3-0.2-0.4v-8.7c0,0,0,0,0-0.1c0-0.6-0.2-1.8-1-3c-0.6-1-1.4-1.6-1.9-1.9c-0.1-0.1-0.2-0.1-0.2-0.2
	c-0.3-0.5-0.5-1.1-0.8-1.6V67c0.3-0.5,0.5-1.1,0.8-1.6c0-0.1,0.1-0.2,0.2-0.2c0.5-0.3,1.1-0.7,1.9-0.9c2.6-0.9,4.9-0.3,6,0h0.8
	c0.1,0,0.3,0,0.4-0.1c0.3-0.2,0.6-0.5,0.9-0.9c0.9-1.2,1-1,2-3c0,0,0,0,0-0.1c0.1-0.2,0.4-1.1,0.5-1.7c0.1-0.7,0.5-1.3,1-1.8
	l0.5-0.5c0,0,1-1.1,1-2c0-0.6,0-0.8,0-1c-0.2-1-1.4-1-2-2c-0.5-0.8-0.7-2.1,0-3c0.3-0.4,0.7-0.6,1-0.8c0.6-0.2,1.1-0.8,1.3-1.4
	c0.2-0.5,0.4-1.1,0.5-1.6c0-0.1,0.1-0.2,0.2-0.3c0.6-0.5,1.5-1.5,1.9-2.9c0.3-1.2,0.1-2.1,0-3c-0.2-1.4-0.7-2.4-1-3
	c-1.4-2.8-3.6-5.4-6-8c-0.9-0.9-2.1-2.2-3.6-3.6c0-0.7,0-1.1,0-1.8c7-6.1,14.1-12.2,21.1-18.4c0.4-0.4,0.1-1.1-0.4-1
	c-16.3,1.6-32.7,3.2-49,4.8c-0.1,0-0.2,0.1-0.3,0.2c-13.2,11.6-26.4,23.2-39.6,34.8c-0.4,0.4-0.1,1,0.4,1c4.6-0.3,9.2-0.6,13.8-0.9
	c0.3,0,0.5,0.2,0.6,0.4c0.3,1.2,0.6,2.3,0.9,3.5c1.4,5,3.2,9.4,5,13.1c0.7,1.6,1.3,3.2,2,4.9c0,0,0,0.1,0.1,0.1
	c0.5,0.6,0.9,1.2,1.4,1.9l1.6,3.2c0.6,1.9,1.3,3.8,1.9,5.7c0,0.1,0,0.1,0,0.2v8.4c3.5,0.8,3,0.7,6.5,1.5l0.1-0.2
	c1.3,0.3,1.1,0.3,2.5,0.6V88c0,0.2-0.1,0.3-0.2,0.4l-2.8,2.8l-0.1,0.1c-0.5,0.3-1.3,1-1.9,2c-0.7,1.1-0.8,2-1,3
	c-0.2,1.4-0.5,2.6,0,4c0.3,1,0.9,1.7,2,3s1.8,2.2,3,3c0.6,0.4,1.2,0.7,1.6,0.9c0.2,0.1,0.4,0.3,0.4,0.5v3.5c0,0.1,0,0.2-0.1,0.2
	c-0.3,0.6-0.6,1.2-0.9,1.9c-1.5,2.9-3.2,5.4-4.8,7.5c0.1,0.7,0.1,1.2,0.2,1.9c2.8,2.5,5.6,5,8.4,7.5c0.1,0.1,0.2,0.3,0.2,0.4v13.2
	c0,0.3,0.3,0.6,0.6,0.6h4.2c0.2,0,0.3,0.1,0.4,0.2c0.2,0.3,0.5,0.6,0.8,0.8c0.9,0.8,1.9,1.4,2.7,1.9c0.2,0.1,0.3,0.3,0.3,0.5v4.4
	c0,0.2-0.1,0.3-0.2,0.4c-0.8,0.8-2,2-2.8,3.8c-0.2,0.3-0.6,1.4-1,3c-0.7,3.3-0.3,6,0,8c0.4,2.3,1.2,5.7,3.1,9.4
	c-1.1,1.9-1,1.7-2.1,3.6h-0.7c-0.2,0-0.4,0.1-0.5,0.3c-0.3,0.4-0.5,1-0.8,1.7c-0.3,0.9-1.1,2.7-1,5c0.1,2.8,1.3,4.9,2,6
	c0,0,0,0.1,0.1,0.1c0.3,0.3,0.5,0.5,0.8,0.8c0.1,0.1,0.2,0.2,0.4,0.2h20.8c0.7-0.1,1.8-0.2,3-1c1-0.7,1.6-1.4,2-2s0.8-1.1,1-2
	c0-0.2,0.2-1,0-2c-0.2-0.8-0.4-1.7-1-2c-0.5-0.2-1,0-2,0c-0.5,0-0.7-0.1-1,0c-0.4,0.1-0.7,0.4-0.9,0.7c-0.1,0.2-0.3,0.3-0.5,0.3
	h-2.3c-0.8-0.4-1.8-0.9-2.6-1.4c-0.6-0.8-1.1-1.7-1.7-2.6c0-0.1,0-0.1-0.1-0.1c-0.3-0.8-0.6-1.7-0.8-2.5c-0.1-0.2-0.3-0.4-0.6-0.4
	h-2.6c-0.1,0-0.8-0.3-1-1c-0.2-0.4-0.1-0.8,0-1v-9.7c0-0.2,0.1-0.4,0.2-0.6c0.8-1.8,0.8-2.1,0.8-2.8v-5.8c0-0.1,0.1-0.3,0.2-0.4
	l0.7-0.7c0.1-0.1,0.2-0.2,0.2-0.4v-1.7c0.6-1.6,1.5-3.7,2.2-5.2l2-2c0.3-0.7,0.6-1.4,0.9-2.1v-1.8h3.2c0.4-0.5,0.5-0.7,0.9-1.2
	c-0.4-1.6-0.8-3.2-1.2-4.7v-0.1v-14.6c0-0.2,0.1-0.4,0.2-0.5c0.4-0.3,1-0.6,1.8-0.8c1.5-0.5,2.9-0.3,3.7-0.1c0.2,0,0.4,0,0.5-0.2
	l0.4-0.4c0.2-0.2,0.2-0.5,0.1-0.8c-0.9-1.2-1.7-2.3-2.6-3.4c-0.1-0.1-0.1-0.2-0.1-0.3v-9.8c0-0.2,0.1-1.4,1-2s2.2-0.5,3.3,0.4
	c0.4,0.3,0.7,0.7,0.9,1.2c0.5,1,1.2,1.5,1.7,2.5c10.5-0.2,11.5,1.2,22,1c4.8-10.5,10-22,14.8-32.6C414.3,77.4,414.2,77.1,414,76.9z
	 M343.4,65.2c-0.4,0.9-0.7,1.9-1,3c-0.5,1.8-0.8,3.5-1,5c-0.4,1.2-0.7,2.2-1,3c-0.1,0.1-0.4,1-1,2c-0.6,0.9-0.8,1-1,1
	c-0.6,0-1-0.9-1-1c-2-2.3-4-4.7-6-7c-2-3.7-4-7.3-6-11c-1.7-2.3-3.3-4.7-5-7c-1.3-2.7-2.7-5.3-4-8c-0.3-0.7-0.7-1.3-1-2v-1
	c3.7-0.3,7.3-0.7,11-1c0.3,0.1,1.2,0.2,2,1c1.2,1.2,1,2.8,1,3c-0.3,0.7-0.7,1.3-1,2c0.3,0.7,0.7,1.3,1,2c0.3,0.3,0.7,0.7,1,1
	c0.2,0.6,0.6,1.3,1,2c0.6,1.1,2.5,3.9,6,6c0.7,0.4,1.4,0.8,2,1c0.7,0.7,1.3,1.3,2,2s1.3,1.3,2,2V65.2z"/>
</svg>
