<?xml version="1.0" encoding="UTF-8" standalone="no"?>
<!DOCTYPE svg PUBLIC "-//W3C//DTD SVG 1.1//EN" "http://www.w3.org/Graphics/SVG/1.1/DTD/svg11.dtd">
<!-- Created with Vectornator (http://vectornator.io/) -->
<svg height="100%" stroke-miterlimit="10" style="fill-rule:nonzero;clip-rule:evenodd;stroke-linecap:round;stroke-linejoin:round;" version="1.1" viewBox="0 0 709.923 386.046" width="100%" xml:space="preserve" xmlns="http://www.w3.org/2000/svg" xmlns:vectornator="http://vectornator.io" xmlns:xlink="http://www.w3.org/1999/xlink">
<defs/>
			<g>
				<defs id="SvgjsDefs1081"><linearGradient id="SvgjsLinearGradient1090"><stop id="SvgjsStop1091" stop-color="#8f5e25" offset="0"></stop><stop id="SvgjsStop1092" stop-color="#fbf4a1" offset="0.5"></stop><stop id="SvgjsStop1093" stop-color="#8f5e25" offset="1"></stop></linearGradient><linearGradient id="SvgjsLinearGradient1094"><stop id="SvgjsStop1095" stop-color="#8f5e25" offset="0"></stop><stop id="SvgjsStop1096" stop-color="#fbf4a1" offset="0.5"></stop><stop id="SvgjsStop1097" stop-color="#8f5e25" offset="1"></stop></linearGradient><linearGradient id="SvgjsLinearGradient1098"><stop id="SvgjsStop1099" stop-color="#8f5e25" offset="0"></stop><stop id="SvgjsStop1100" stop-color="#fbf4a1" offset="0.5"></stop><stop id="SvgjsStop1101" stop-color="#8f5e25" offset="1"></stop></linearGradient><linearGradient id="SvgjsLinearGradient1102"><stop id="SvgjsStop1103" stop-color="#8f5e25" offset="0"></stop><stop id="SvgjsStop1104" stop-color="#fbf4a1" offset="0.5"></stop><stop id="SvgjsStop1105" stop-color="#8f5e25" offset="1"></stop></linearGradient></defs><g id="SvgjsG1082" featureKey="symbolFeature-0" transform="matrix(1.1445309341898438,0,0,1.1445309341898438,117.59801680769012,94.0234091662259)" fill="url(#SvgjsLinearGradient1090)"><title xmlns="http://www.w3.org/2000/svg">Artboard 2</title><path xmlns="http://www.w3.org/2000/svg" d="M11.27,63.31,17,65.2V79.26a6.65,6.65,0,0,0,6.65,6.65h14.3l3,10.41a3.69,3.69,0,0,0,4.56,2.54L83.77,87.93a3.69,3.69,0,0,0,2.54-4.56L80.64,63.53A37,37,0,1,0,17,38a17.94,17.94,0,0,1-1.55,7.3L9.35,59A3.21,3.21,0,0,0,11.27,63.31ZM51.39,22.13V19.8a2.48,2.48,0,0,1,5,0v2a21.59,21.59,0,0,1,4.62.67,2.93,2.93,0,0,1-.75,5.76,2.83,2.83,0,0,1-.81-.12,15.54,15.54,0,0,0-4.48-.64c-3.29,0-4.35,1.42-4.35,2.83,0,1.67,1.77,2.73,6.07,4.35,6,2.12,8.45,4.91,8.45,9.46s-3.19,8.35-9,9.36v2.68a2.48,2.48,0,1,1-5,0V53.8a23.37,23.37,0,0,1-6-1.07,2.93,2.93,0,0,1-1.94-3.51l.06-.24A2.86,2.86,0,0,1,46,46.83,3,3,0,0,1,47,47a17,17,0,0,0,5.47.94c2.88,0,4.86-1.11,4.86-3.14s-1.62-3.14-5.36-4.4c-5.41-1.82-9.11-4.35-9.11-9.26C42.84,26.68,46,23.19,51.39,22.13Z"></path></g><g id="SvgjsG1083" featureKey="nameFeature-0" transform="matrix(0.9300787389569978,0,0,0.9300787389569978,-2.2394743726765367,-10.565693268242095)" fill="url(#SvgjsLinearGradient1094)"><path d="M10.24 40.64 c-3.28 0 -8.28 -1.44 -7.8 -3.2 l0.4 -1.48 c1.12 -4.2 2.44 1.96 9.04 1.96 c3.36 0 5 -1.64 5 -3.96 c0 -1.88 -1.2 -2.68 -4.04 -4.44 l-3.88 -2.44 c-4.32 -2.72 -6.08 -4.4 -6.08 -7.4 c0 -4.92 4.8 -8.32 9.76 -8.32 c3.04 0 6.92 1.32 6.48 2.68 l-0.48 1.52 c-1.24 3.88 -2.24 -1.48 -7.72 -1.48 c-2.84 0 -4.32 1.44 -4.32 3.56 c0 1.8 1.08 2.8 3.76 4.44 l4.2 2.6 c4.24 2.64 5.96 4.44 5.96 7.32 c0 5 -4.92 8.64 -10.28 8.64 z M23.919999999999998 40.08 c-0.4 0.04 -0.56 -1.36 -0.24 -1.44 c2.32 -0.6 4.12 -0.96 4.12 -3.92 l0 -17.76 c0 -2.56 -1.64 -3.24 -3.36 -3.68 c-0.32 -0.08 -0.12 -1.4 0.2 -1.36 c2.92 0.32 7.96 0.24 10.4 0.24 c3.64 0 6.28 -0.16 9.56 -0.24 c0.96 0 0.96 0.64 0.76 1.56 l-0.96 3.8 c-0.12 0.56 -1.12 0.56 -1.28 0 c-0.6 -1.96 -1.8 -3.08 -6.8 -3.08 c-2.8 0 -3.72 0.72 -3.72 2.8 l0 6.52 c0 1.04 0.52 1.24 1.32 1.24 l0.88 0 c3.24 0 6.04 -0.32 7.68 -1.8 c0.4 -0.36 1.28 -0.28 0.92 0.52 l-2.28 5.04 c-0.32 0.72 -0.92 0.64 -1.36 0.04 c-0.92 -1.28 -2.96 -1.8 -5.28 -1.8 l-0.56 0 c-0.8 0 -1.32 0.2 -1.32 1.24 l0 6.72 c0 2.28 0.96 3.12 4.28 3.12 c6.04 0 8.44 -2.76 9.4 -4.28 c0.28 -0.44 1.36 -0.24 1.36 0.44 c0 2.04 -1.72 6.08 -4.24 6.08 c-2.24 -0.12 -4.44 -0.24 -7.8 -0.24 c-3.68 0 -8.04 -0.12 -11.68 0.24 z M67.24 40.64 c-6.72 0 -15.8 -3.92 -15.8 -14.12 c0 -6.92 4.24 -15.16 15.44 -15.16 c4.64 0 8.64 1.44 8.16 2.84 l-0.52 1.56 c-1.44 4.28 -3 -1.2 -10.12 -1.2 c-5.72 0 -8.52 3.72 -8.52 9.48 c0 9 6.84 12.76 12.32 12.76 c0.72 0 4.36 -0.56 6.44 -1.88 c0.32 -0.2 1.16 0.72 0.92 1.08 c-1.72 2.52 -7.08 4.64 -8.32 4.64 z M94.36 40.64 c-5.64 0 -11.96 -3 -11.96 -11.12 l0 -12.56 c0 -2.52 -1.28 -3.36 -3.24 -3.6 c-0.32 -0.04 -0.08 -1.36 0.24 -1.36 l10.92 0 c0.32 0 0.56 1.32 0.24 1.36 c-1.6 0.2 -3.2 0.8 -3.2 3.6 l0 12.76 c0 5.6 3.24 8.2 7.48 8.2 c4.36 0 7.84 -2.6 7.84 -8.2 l0 -12.76 c0 -2.6 -1.48 -3.32 -3.44 -3.6 c-0.28 -0.04 -0.08 -1.36 0.24 -1.36 l9 0 c0.28 0 0.52 1.32 0.2 1.36 c-1.6 0.2 -3.2 0.8 -3.2 3.6 l0 12.52 c0 7.36 -4.76 11.16 -11.12 11.16 z M141.24 39 c0.32 0 0.24 1.08 0 1.16 c-2.52 0.84 -6 0.72 -8.4 -2.36 l-6.16 -7.92 c-1.72 -2.24 -3.76 -2.56 -6.56 -2.6 l0 7.76 c0 2.8 1.92 3.28 4.48 3.6 c0.28 0.04 0.08 1.36 -0.24 1.36 l-12.12 0 c-0.32 0 -0.56 -1.32 -0.24 -1.36 c2.04 -0.28 3.32 -1.08 3.32 -3.6 l0 -17.84 c0 -2.64 -1.4 -3.4 -3.32 -3.92 c-0.32 -0.08 -0.12 -1.4 0.24 -1.36 c1.56 0.2 3.32 0.24 4.6 0.24 c2.96 0 5.72 -0.24 7.64 -0.24 c6.04 0 10.08 2.48 10.08 7.4 c0 4.64 -3.76 6.92 -7.12 7.12 l0 0.2 c1.6 0 2.76 0.68 4.52 2.88 l5.96 7.48 c1.24 1.56 2.44 2 3.32 2 z M121.28 25.439999999999998 c5.96 0 8.24 -1.04 8.24 -5.04 c0 -4.28 -2.72 -6.4 -6.28 -6.4 c-2.36 0 -3.12 0.96 -3.12 3.2 l0 8.24 l1.16 0 z M143.44 40.08 c-0.4 0.04 -0.56 -1.36 -0.24 -1.44 c2.32 -0.6 4.12 -0.96 4.12 -3.92 l0 -17.76 c0 -2.56 -1.64 -3.24 -3.36 -3.68 c-0.32 -0.08 -0.12 -1.4 0.2 -1.36 c2.92 0.32 7.96 0.24 10.4 0.24 c3.64 0 6.28 -0.16 9.56 -0.24 c0.96 0 0.96 0.64 0.76 1.56 l-0.96 3.8 c-0.12 0.56 -1.12 0.56 -1.28 0 c-0.6 -1.96 -1.8 -3.08 -6.8 -3.08 c-2.8 0 -3.72 0.72 -3.72 2.8 l0 6.52 c0 1.04 0.52 1.24 1.32 1.24 l0.88 0 c3.24 0 6.04 -0.32 7.68 -1.8 c0.4 -0.36 1.28 -0.28 0.92 0.52 l-2.28 5.04 c-0.32 0.72 -0.92 0.64 -1.36 0.04 c-0.92 -1.28 -2.96 -1.8 -5.28 -1.8 l-0.56 0 c-0.8 0 -1.32 0.2 -1.32 1.24 l0 6.72 c0 2.28 0.96 3.12 4.28 3.12 c6.04 0 8.44 -2.76 9.4 -4.28 c0.28 -0.44 1.36 -0.24 1.36 0.44 c0 2.04 -1.72 6.08 -4.24 6.08 c-2.24 -0.12 -4.44 -0.24 -7.8 -0.24 c-3.68 0 -8.04 -0.12 -11.68 0.24 z M207.44 38.64 c0.56 0.08 0.4 1.36 -0.08 1.36 l-10.56 0 c-0.52 0 -0.56 -1.28 -0.12 -1.36 c1.48 -0.28 3.08 -0.8 1.6 -4.24 l-0.44 -1 c-0.4 -0.96 -1.08 -1.04 -2.28 -1.04 l-8.16 0 c-1.2 0 -1.88 0.08 -2.28 1.04 l-0.4 1 c-1.4 3.44 0.12 3.96 2.04 4.24 c0.52 0.08 0.4 1.36 -0.12 1.36 l-8.64 0 c-0.48 0 -0.6 -1.28 -0.12 -1.36 c1.64 -0.28 2.6 -0.84 4.08 -4.24 l6.76 -15.52 c1.56 -3.52 2.04 -5.16 2.04 -6.68 c0 -0.24 2.8 -0.88 2.92 -0.6 l9.76 22.76 c1.44 3.4 2.4 4.04 4 4.28 z M195.28 30.119999999999997 c0.56 0 1.16 -0.08 0.92 -0.64 l-4.68 -11.2 l-4.72 11.2 c-0.24 0.56 0.36 0.64 0.92 0.64 l7.56 0 z M216.36 40 c-0.36 0 -0.6 -1.28 -0.28 -1.32 c2.76 -0.36 4.6 -0.92 4.6 -3.08 l0 -19.72 c0 -1 -0.36 -1.32 -1.32 -1.32 l-1.08 0 c-3.8 0 -5.92 0.88 -6.72 2.6 c-0.36 0.8 -1.72 0.68 -1.56 0 c0.36 -1.44 0.68 -2.68 0.92 -4.8 c0.08 -0.76 0.52 -0.72 1.24 -0.64 c1.84 0.2 3.52 0.28 11.12 0.28 s10.28 -0.08 12.2 -0.28 c0.72 -0.08 1.4 -0.12 1.16 0.64 c-0.6 1.88 -1 3.36 -1.24 4.8 c-0.12 0.68 -1.2 0.72 -1.36 0 c-0.4 -1.68 -2.16 -2.6 -5.6 -2.6 l-1.24 0 c-0.96 0 -1.56 0.32 -1.56 1.32 l0 19.72 c0 2.16 1.84 2.72 4.6 3.08 c0.32 0.04 0.08 1.32 -0.28 1.32 l-13.6 0 z M269.72 38.64 c0.32 0.04 0.08 1.36 -0.24 1.36 l-10.96 0 c-0.32 0 -0.56 -1.32 -0.24 -1.36 c2.04 -0.28 3.32 -1.08 3.32 -3.6 l0 -6.88 c-0.2 -0.68 -1.04 -0.68 -1.8 -0.68 l-10.24 0 c-0.76 0 -1.6 0 -1.8 0.68 l0 6.88 c0 2.8 1.6 3.36 3.32 3.6 c0.32 0.04 0.08 1.36 -0.24 1.36 l-10.96 0 c-0.32 0 -0.56 -1.32 -0.24 -1.36 c2.04 -0.28 3.32 -1.08 3.32 -3.6 l0 -18.08 c0 -2.52 -1.28 -3.32 -3.32 -3.6 c-0.32 -0.04 -0.08 -1.36 0.24 -1.36 l10.96 0 c0.32 0 0.56 1.32 0.24 1.36 c-1.72 0.24 -3.32 0.8 -3.32 3.6 l0 7.32 c0.2 0.68 1.04 0.68 1.8 0.68 l10.24 0 c0.76 0 1.6 0 1.8 -0.68 l0 -7.32 c0 -2.52 -1.28 -3.32 -3.32 -3.6 c-0.32 -0.04 -0.08 -1.36 0.24 -1.36 l10.96 0 c0.32 0 0.56 1.32 0.24 1.36 c-1.72 0.24 -3.32 0.8 -3.32 3.6 l0 18.08 c0 2.8 1.6 3.36 3.32 3.6 z M272.88 40.08 c-0.4 0.04 -0.56 -1.36 -0.24 -1.44 c2.32 -0.6 4.12 -0.96 4.12 -3.92 l0 -17.76 c0 -2.8 -1.64 -3.36 -3.36 -3.6 c-0.32 -0.04 -0.08 -1.36 0.2 -1.36 l11.04 0 c0.28 0 0.48 1.32 0.2 1.36 c-1.68 0.2 -3.28 0.8 -3.28 3.6 l0 17.76 c0 2.28 0.96 3.12 4.28 3.12 c6.04 0 8.44 -2.76 9.4 -4.28 c0.28 -0.44 1.36 -0.24 1.36 0.44 c0 2.04 -1.72 6.08 -4.24 6.08 c-2.24 -0.12 -4.44 -0.24 -7.8 -0.24 c-3.68 0 -8.04 -0.12 -11.68 0.24 z M299.2 40.08 c-0.4 0.04 -0.56 -1.36 -0.24 -1.44 c2.32 -0.6 4.12 -0.96 4.12 -3.92 l0 -17.76 c0 -2.56 -1.64 -3.24 -3.36 -3.68 c-0.32 -0.08 -0.12 -1.4 0.2 -1.36 c2.92 0.32 7.96 0.24 10.4 0.24 c3.64 0 6.28 -0.16 9.56 -0.24 c0.96 0 0.96 0.64 0.76 1.56 l-0.96 3.8 c-0.12 0.56 -1.12 0.56 -1.28 0 c-0.6 -1.96 -1.8 -3.08 -6.8 -3.08 c-2.8 0 -3.72 0.72 -3.72 2.8 l0 6.52 c0 1.04 0.52 1.24 1.32 1.24 l0.88 0 c3.24 0 6.04 -0.32 7.68 -1.8 c0.4 -0.36 1.28 -0.28 0.92 0.52 l-2.28 5.04 c-0.32 0.72 -0.92 0.64 -1.36 0.04 c-0.92 -1.28 -2.96 -1.8 -5.28 -1.8 l-0.56 0 c-0.8 0 -1.32 0.2 -1.32 1.24 l0 6.72 c0 2.28 0.96 3.12 4.28 3.12 c6.04 0 8.44 -2.76 9.4 -4.28 c0.28 -0.44 1.36 -0.24 1.36 0.44 c0 2.04 -1.72 6.08 -4.24 6.08 c-2.24 -0.12 -4.44 -0.24 -7.8 -0.24 c-3.68 0 -8.04 -0.12 -11.68 0.24 z M332.08 40 c-0.36 0 -0.6 -1.28 -0.28 -1.32 c2.76 -0.36 4.6 -0.92 4.6 -3.08 l0 -19.72 c0 -1 -0.36 -1.32 -1.32 -1.32 l-1.08 0 c-3.8 0 -5.92 0.88 -6.72 2.6 c-0.36 0.8 -1.72 0.68 -1.56 0 c0.36 -1.44 0.68 -2.68 0.92 -4.8 c0.08 -0.76 0.52 -0.72 1.24 -0.64 c1.84 0.2 3.52 0.28 11.12 0.28 s10.28 -0.08 12.2 -0.28 c0.72 -0.08 1.4 -0.12 1.16 0.64 c-0.6 1.88 -1 3.36 -1.24 4.8 c-0.12 0.68 -1.2 0.72 -1.36 0 c-0.4 -1.68 -2.16 -2.6 -5.6 -2.6 l-1.24 0 c-0.96 0 -1.56 0.32 -1.56 1.32 l0 19.72 c0 2.16 1.84 2.72 4.6 3.08 c0.32 0.04 0.08 1.32 -0.28 1.32 l-13.6 0 z M354.99999999999994 40.08 c-0.4 0.04 -0.56 -1.36 -0.24 -1.44 c2.32 -0.6 4.12 -0.96 4.12 -3.92 l0 -17.76 c0 -2.56 -1.64 -3.24 -3.36 -3.68 c-0.32 -0.08 -0.12 -1.4 0.2 -1.36 c2.92 0.32 7.96 0.24 10.4 0.24 c3.64 0 6.28 -0.16 9.56 -0.24 c0.96 0 0.96 0.64 0.76 1.56 l-0.96 3.8 c-0.12 0.56 -1.12 0.56 -1.28 0 c-0.6 -1.96 -1.8 -3.08 -6.8 -3.08 c-2.8 0 -3.72 0.72 -3.72 2.8 l0 6.52 c0 1.04 0.52 1.24 1.32 1.24 l0.88 0 c3.24 0 6.04 -0.32 7.68 -1.8 c0.4 -0.36 1.28 -0.28 0.92 0.52 l-2.28 5.04 c-0.32 0.72 -0.92 0.64 -1.36 0.04 c-0.92 -1.28 -2.96 -1.8 -5.28 -1.8 l-0.56 0 c-0.8 0 -1.32 0.2 -1.32 1.24 l0 6.72 c0 2.28 0.96 3.12 4.28 3.12 c6.04 0 8.44 -2.76 9.4 -4.28 c0.28 -0.44 1.36 -0.24 1.36 0.44 c0 2.04 -1.72 6.08 -4.24 6.08 c-2.24 -0.12 -4.44 -0.24 -7.8 -0.24 c-3.68 0 -8.04 -0.12 -11.68 0.24 z"></path></g><g id="SvgjsG1084" featureKey="sloganFeature-0" transform="matrix(0.9324211533374384,0,0,0.9324211533374384,42.35345925977567,35.69149310158712)" fill="url(#SvgjsLinearGradient1098)"><path d="M6.5137 20.19531 c-3.0273 0 -5.3906 -1.4551 -5.8203 -4.1016 l3.0273 -0.69336 c0.19531 1.582 1.3574 2.4023 2.9102 2.4023 c1.1914 0 2.1387 -0.52734 2.1289 -1.7188 c-0.0097656 -1.3281 -1.5723 -1.748 -3.291 -2.2754 c-2.0703 -0.64453 -4.2871 -1.4063 -4.2871 -4.0039 c0 -2.627 2.1484 -4.1113 4.9805 -4.1113 c2.4805 0 4.9805 1.0059 5.5469 3.7109 l-2.832 0.70313 c-0.26367 -1.4063 -1.2109 -2.0215 -2.5391 -2.0215 c-1.1816 0 -2.1875 0.48828 -2.1875 1.6504 c0 1.084 1.3867 1.4453 2.9883 1.9238 c2.1289 0.64453 4.6484 1.4648 4.6484 4.2773 c0 2.998 -2.5098 4.2578 -5.2734 4.2578 z M35.1808984375 8.467 l-5.2344 0 l0 3.2031 l4.6387 0 l0 2.5488 l-4.6387 0 l0 3.1934 l5.2344 0 l0 2.5879 l-8.1836 0 l0 -14.111 l8.1836 0 l0 2.5781 z M56.953153125 20.19531 c-4.1504 0 -7.2168 -2.8223 -7.2168 -7.2559 s3.0664 -7.2461 7.2168 -7.2461 c3.1445 0 5.6641 1.6113 6.6699 4.2871 l-2.7344 0.99609 c-0.625 -1.6406 -2.1191 -2.5879 -3.9355 -2.5879 c-2.4316 0 -4.2969 1.6992 -4.2969 4.5508 s1.8652 4.5605 4.2969 4.5605 c1.8164 0 3.3105 -0.95703 3.9355 -2.5977 l2.7344 0.99609 c-1.0059 2.6758 -3.5254 4.2969 -6.6699 4.2969 z M83.7549015625 20.19531 c-3.0957 0 -5.5176 -1.582 -5.5176 -5.1367 l0 -9.1699 l2.9297 0 l0 8.7695 c0 2.1484 1.1426 2.9492 2.5879 2.9492 c1.4551 0 2.6074 -0.81055 2.6074 -2.9492 l0 -8.7695 l2.9297 0 l0 9.1699 c0 3.5547 -2.4316 5.1367 -5.5371 5.1367 z M112.607378125 20 l-3.6719 -6.2109 l-0.84961 0 l0 6.2109 l-2.9297 0 l0 -14.111 l5.1172 0 c3.1934 0 4.541 1.8848 4.541 4.2188 c0 1.8945 -1.0742 3.125 -2.9883 3.5352 l4.248 6.3574 l-3.4668 0 z M108.085978125 8.32 l0 3.3691 l1.7285 0 c1.5625 0 2.1973 -0.66406 2.1973 -1.6797 c0 -1.0059 -0.63477 -1.6895 -2.1973 -1.6895 l-1.7285 0 z M130.7275671875 20 l0 -14.111 l2.9297 0 l0 14.111 l-2.9297 0 z M159.443515625 5.888999999999999 l2.9199 0 l0 14.111 l-3.3887 0 l-6.25 -10.088 l0 10.088 l-2.9199 0 l0 -14.111 l3.3496 0 l6.2891 10.029 l0 -10.029 z M184.6240359375 20.19531 c-4.0723 0 -7.0703 -2.8125 -7.0703 -7.2168 c0 -4.4629 3.0664 -7.2852 7.2168 -7.2852 c2.7246 0 4.9805 1.2012 6.2109 3.3203 l-2.5684 1.3672 c-0.74219 -1.4453 -2.0703 -2.1387 -3.6426 -2.1387 c-2.4414 0 -4.2773 1.6797 -4.2773 4.668 c0 2.8809 1.7188 4.7363 4.3848 4.7363 c1.8066 0 3.4668 -0.89844 3.8672 -2.959 l-3.8574 0 l0 -2.3535 l6.6309 0 l0 7.666 l-2.3047 0 l0 -1.9531 c-0.9082 1.3379 -2.4316 2.1484 -4.5898 2.1484 z M232.9445703125 5.888999999999999 l0 2.5781 l-3.3496 0 l0 11.533 l-2.9004 0 l0 -11.533 l-3.3691 0 l0 -2.5781 l9.6191 0 z M256.56284375 5.888999999999999 l2.9297 0 l0 14.111 l-2.9297 0 l0 -5.8008 l-5.9668 0 l0 5.8008 l-2.9297 0 l0 -14.111 l2.9297 0 l0 5.7617 l5.9668 0 l0 -5.7617 z M283.8332421875 8.467 l-5.2344 0 l0 3.2031 l4.6387 0 l0 2.5488 l-4.6387 0 l0 3.1934 l5.2344 0 l0 2.5879 l-8.1836 0 l0 -14.111 l8.1836 0 l0 2.5781 z"></path></g><g id="SvgjsG1085" featureKey="sloganFeature-1" transform="matrix(0.9324211533374384,0,0,0.9324211533374384,33.297678881042586,59.69143619111634)" fill="url(#SvgjsLinearGradient1102)"><path d="M10.146 8.467 l-5.3711 0 l0 3.2031 l4.6387 0 l0 2.5488 l-4.6387 0 l0 5.7813 l-2.9492 0 l0 -14.111 l8.3203 0 l0 2.5781 z M30.3759953125 20.19531 c-3.0957 0 -5.5176 -1.582 -5.5176 -5.1367 l0 -9.1699 l2.9297 0 l0 8.7695 c0 2.1484 1.1426 2.9492 2.5879 2.9492 c1.4551 0 2.6074 -0.81055 2.6074 -2.9492 l0 -8.7695 l2.9297 0 l0 9.1699 c0 3.5547 -2.4316 5.1367 -5.5371 5.1367 z M59.961171875 5.888999999999999 l0 2.5781 l-3.3496 0 l0 11.533 l-2.9004 0 l0 -11.533 l-3.3691 0 l0 -2.5781 l9.6191 0 z M79.9072453125 20.19531 c-3.0957 0 -5.5176 -1.582 -5.5176 -5.1367 l0 -9.1699 l2.9297 0 l0 8.7695 c0 2.1484 1.1426 2.9492 2.5879 2.9492 c1.4551 0 2.6074 -0.81055 2.6074 -2.9492 l0 -8.7695 l2.9297 0 l0 9.1699 c0 3.5547 -2.4316 5.1367 -5.5371 5.1367 z M108.759721875 20 l-3.6719 -6.2109 l-0.84961 0 l0 6.2109 l-2.9297 0 l0 -14.111 l5.1172 0 c3.1934 0 4.541 1.8848 4.541 4.2188 c0 1.8945 -1.0742 3.125 -2.9883 3.5352 l4.248 6.3574 l-3.4668 0 z M104.238321875 8.32 l0 3.3691 l1.7285 0 c1.5625 0 2.1973 -0.66406 2.1973 -1.6797 c0 -1.0059 -0.63477 -1.6895 -2.1973 -1.6895 l-1.7285 0 z M135.0637109375 8.467 l-5.2344 0 l0 3.2031 l4.6387 0 l0 2.5488 l-4.6387 0 l0 3.1934 l5.2344 0 l0 2.5879 l-8.1836 0 l0 -14.111 l8.1836 0 l0 2.5781 z M176.4699609375 5.888999999999999 l0 2.5781 l-3.3496 0 l0 11.533 l-2.9004 0 l0 -11.533 l-3.3691 0 l0 -2.5781 l9.6191 0 z M197.441434375 20.19531 c-4.1504 0 -7.2168 -2.832 -7.2168 -7.2559 c0 -4.4336 3.0664 -7.2461 7.2168 -7.2461 c4.1406 0 7.207 2.8125 7.207 7.2461 c0 4.4238 -3.0664 7.2559 -7.207 7.2559 z M197.441434375 17.5098 c2.4316 0 4.2969 -1.709 4.2969 -4.5703 c0 -2.8516 -1.8652 -4.5508 -4.2969 -4.5508 s-4.2969 1.6992 -4.2969 4.5508 c0 2.8613 1.8652 4.5703 4.2969 4.5703 z M219.8486609375 20 l0 -14.111 l5.1074 0 c4.502 0 6.7285 2.832 6.7285 7.0508 c0 4.2285 -2.2266 7.0605 -6.7285 7.0605 l-5.1074 0 z M222.7783609375 17.4121 l2.0313 0 c2.5977 0 3.7891 -1.6211 3.7891 -4.4727 s-1.1914 -4.4727 -3.7891 -4.4727 l-2.0313 0 l0 8.9453 z M256.377421875 20 l-1.0254 -2.9102 l-5.9277 0 l-1.0254 2.9102 l-2.998 0 l5.1953 -14.111 l3.584 0 l5.1953 14.111 l-2.998 0 z M250.283221875 14.6387 l4.209 0 l-2.0996 -5.9863 z M284.5848515625 5.888999999999999 l-4.6387 7.3535 l0 6.7578 l-2.9395 0 l0 -6.6895 l-4.668 -7.4219 l3.2422 0 l2.8809 4.8047 l2.8906 -4.8047 l3.2324 0 z M299.36519375 15.498000000000001 l-0.2832 -9.6094 l2.832 0 l-0.2832 9.6094 l-2.2656 0 z M300.49809375 20.19531 c-0.87891 0 -1.6016 -0.72266 -1.6016 -1.6016 c0 -0.89844 0.72266 -1.6211 1.6016 -1.6211 c0.89844 0 1.6211 0.72266 1.6211 1.6211 c0 0.87891 -0.72266 1.6016 -1.6211 1.6016 z"></path></g>
			</g>
		</svg>
	