<?xml version="1.0" encoding="UTF-8" standalone="no"?>
<!DOCTYPE svg PUBLIC "-//W3C//DTD SVG 1.1//EN" "http://www.w3.org/Graphics/SVG/1.1/DTD/svg11.dtd">
<!-- Created with Vectornator (http://vectornator.io/) -->
<svg height="100%" stroke-miterlimit="10" style="fill-rule:nonzero;clip-rule:evenodd;stroke-linecap:round;stroke-linejoin:round;" version="1.1" viewBox="0 0 201.491 143.026" width="100%" xml:space="preserve" xmlns="http://www.w3.org/2000/svg" xmlns:vectornator="http://vectornator.io" xmlns:xlink="http://www.w3.org/1999/xlink">
<defs/>
<g id="Layer-1" vectornator:layerName="Layer 1">
<path d="M91.7135 23.3492L97.4135 23.3492C98.1135 23.3492 98.8135 23.4492 99.5135 23.6492C100.313 23.9492 101.113 24.3492 101.713 24.9492C102.713 25.9492 103.313 27.3492 103.413 28.7492C103.413 28.8492 103.413 28.9492 103.413 29.0492C103.413 29.4492 103.413 29.7492 103.413 30.1492C103.413 31.7492 103.313 34.5492 103.213 38.5492C103.213 39.4492 103.113 40.3492 103.113 41.2492C103.013 43.0492 103.013 44.9492 103.013 46.7492C102.913 52.6492 102.813 59.8492 102.813 68.3492C102.813 77.2492 103.013 86.1492 103.313 95.0492L124.513 94.8492C125.913 94.8492 127.313 95.3492 128.313 96.4492L128.413 96.5492C129.313 97.5492 129.913 98.7492 130.013 100.049C130.013 100.249 130.013 100.549 130.013 100.749L130.013 104.849C130.013 105.649 129.813 106.549 129.513 107.349C129.213 108.049 128.813 108.649 128.213 109.149C127.113 110.249 125.613 110.949 124.013 111.049C123.913 111.049 123.913 111.049 123.813 111.049C118.013 111.349 112.213 111.549 106.513 111.549C101.613 111.549 96.7135 111.549 91.8135 111.449C90.9135 111.449 90.0135 111.249 89.2135 110.849C88.6135 110.549 88.0135 110.149 87.5135 109.649C86.3135 108.449 85.7135 106.849 85.6135 105.249L85.6135 105.249C85.1135 94.3492 84.8135 83.3492 84.7135 72.4492C84.7135 71.7492 84.7135 71.0492 84.7135 70.3492C84.7135 62.6492 84.8135 53.8492 85.1135 43.8492C85.2135 39.0492 85.4135 34.3492 85.6135 29.5492C85.6135 27.8492 86.3135 26.3492 87.4135 25.1492C88.5135 23.9492 90.0135 23.3492 91.6135 23.3492C91.6134 23.3492 91.6134 23.3492 91.7135 23.3492Z" fill="#ff81a3" fill-rule="evenodd" opacity="1" stroke="none"/>
<path d="M152.391 111.911L146.691 111.911C145.791 111.911 144.791 111.711 143.991 111.311C143.391 111.011 142.791 110.611 142.391 110.111C141.191 108.911 140.591 107.311 140.591 105.711C140.191 93.0112 139.991 80.4112 139.991 67.7112C139.991 58.2112 140.091 48.7112 140.291 39.3112C139.091 39.3112 137.991 39.3112 136.791 39.3112C134.591 39.3112 132.591 39.3112 130.991 39.3112C130.291 39.3112 129.591 39.3112 128.891 39.3112C128.091 39.3112 127.191 39.2112 126.491 38.8112C125.791 38.5112 125.091 38.0112 124.591 37.5112C123.391 36.4112 122.791 34.8112 122.791 33.2112L122.791 33.2112L122.791 30.1112C122.791 29.2112 122.991 28.4112 123.291 27.6112C123.591 26.9112 123.991 26.3112 124.591 25.8112C125.791 24.6112 127.391 24.0112 128.991 23.9112L128.991 23.9112C131.691 23.8112 134.391 23.7112 137.091 23.6112C139.891 23.5112 142.791 23.5112 145.791 23.5112C146.791 23.5112 147.891 23.5112 148.891 23.5112C152.191 23.5112 155.491 23.5112 158.791 23.6112C161.891 23.7112 164.791 23.7112 167.591 23.8112C167.991 23.8112 168.391 23.8112 168.791 23.8112C169.691 23.8112 170.591 24.0112 171.391 24.4112C172.091 24.7112 172.691 25.1112 173.191 25.6112C174.391 26.8112 174.991 28.2112 174.991 29.9112L174.991 33.0112C174.991 34.0112 174.791 35.0112 174.291 35.9112C173.991 36.4112 173.591 37.0112 173.191 37.4112C172.491 38.1112 171.691 38.7112 170.691 38.9112C170.091 39.1112 169.491 39.2112 168.891 39.2112L158.291 39.1112C157.891 49.8112 157.791 60.5112 157.791 71.2112C157.791 82.7112 158.091 94.2112 158.591 105.611L158.591 105.911C158.591 107.411 157.991 108.911 156.891 109.911L156.791 110.011C155.491 111.311 153.991 111.911 152.391 111.911Z" fill="#2e8e00" fill-rule="evenodd" opacity="1" stroke="none"/>
<path d="M40.0233 113.474C30.9233 113.474 25.5233 112.574 23.8233 110.874C22.6233 109.674 22.0233 108.174 22.0233 106.474L22.0233 106.474C21.8233 99.7741 21.6233 93.0741 21.4233 86.4741C21.3233 80.3741 21.2233 74.6741 21.1233 69.2741C21.1233 67.4741 21.1233 65.7741 21.1233 63.9741C21.1233 53.2741 21.4233 42.5741 21.9233 31.8741C21.9233 31.4741 21.9233 31.1741 22.0233 30.7741C22.0233 29.8741 22.2233 28.9741 22.6233 28.1741C22.9233 27.4741 23.3233 26.8741 23.8233 26.3741C25.0233 25.1741 26.4233 24.4741 28.1233 24.3741C30.6233 24.1741 33.1233 23.9741 35.6233 23.8741C37.4233 23.7741 39.2233 23.7741 41.0233 23.7741C44.7233 23.7741 48.3233 23.9741 52.0233 24.4741C61.2233 25.7741 68.2233 28.9741 72.7233 33.9741C76.2233 37.7741 78.2233 42.6741 78.1233 47.8741C78.1233 52.5741 76.5233 57.1741 73.6233 60.7741C73.5233 60.8741 73.5233 60.9741 73.4233 60.9741C72.0233 62.7741 70.3233 64.3741 68.5233 65.7741C67.3233 66.6741 66.1233 67.4741 64.8233 68.1741C66.6233 69.1741 68.3233 70.3741 69.9233 71.6741C71.2233 72.7741 72.4233 73.9741 73.4233 75.2741C75.1233 77.4741 76.4233 79.8741 77.2233 82.5741C77.8233 84.4741 78.1233 86.5741 78.1233 88.5741C78.1233 93.5741 76.2233 98.4741 72.8233 102.174C72.1233 102.974 71.4233 103.674 70.7233 104.374C68.1233 106.774 65.0233 108.674 61.6233 109.874C60.4233 110.274 59.2233 110.674 58.0233 110.974C52.1233 112.674 46.1233 113.474 40.0233 113.474ZM39.8233 100.074L41.4233 100.074C42.5233 100.074 43.7233 100.074 44.8233 99.9741C45.7233 99.8741 46.5233 99.7741 47.4233 99.6741C48.8233 99.4741 50.2233 99.0741 51.5233 98.6741C52.9233 98.2741 54.2233 97.6741 55.4233 97.0741C56.4233 96.5741 57.4233 95.8741 58.2233 95.1741C59.0233 94.4741 59.7233 93.7741 60.3233 92.8741C61.3233 91.4741 61.9233 89.7741 61.9233 87.9741C61.9233 85.2741 60.8233 82.7741 58.8233 80.8741C57.9233 79.9741 56.9233 79.2741 55.7233 78.4741C55.6233 78.3741 55.5233 78.3741 55.4233 78.2741C53.8233 77.3741 52.2233 76.6741 50.5233 76.1741C48.9233 75.6741 47.2233 75.3741 45.3233 75.0741C43.3233 74.7741 41.2233 74.5741 39.2233 74.5741C39.2233 83.0741 39.4233 91.5741 39.8233 100.074ZM43.3233 37.2741L39.8233 37.2741C39.4233 45.4741 39.2233 53.6741 39.1233 61.9741C46.1233 61.7741 51.6233 60.4741 55.4233 58.2741C56.5233 57.6741 57.6233 56.8741 58.5233 55.9741C59.7233 54.7741 60.6233 53.5741 61.2233 52.1741C61.6233 51.0741 61.9233 49.8741 61.9233 48.6741C61.9233 46.2741 60.9233 43.9741 59.0233 42.3741C58.2233 41.5741 57.2233 40.8741 56.0233 40.1741C55.3233 39.7741 54.7233 39.4741 54.0233 39.1741C52.8233 38.6741 51.5233 38.2741 50.2233 38.0741C48.2233 37.4741 45.9233 37.2741 43.3233 37.2741Z" fill="#097bb8" fill-rule="evenodd" opacity="1" stroke="none"/>
</g>
</svg>
