<?xml version="1.0" encoding="UTF-8" standalone="no"?>
<!DOCTYPE svg PUBLIC "-//W3C//DTD SVG 1.1//EN" "http://www.w3.org/Graphics/SVG/1.1/DTD/svg11.dtd">
<!-- Created with Vectornator (http://vectornator.io/) -->
<svg height="100%" stroke-miterlimit="10" style="fill-rule:nonzero;clip-rule:evenodd;stroke-linecap:round;stroke-linejoin:round;" version="1.1" viewBox="0 0 1170.1 104.7" width="100%" xml:space="preserve" xmlns="http://www.w3.org/2000/svg" xmlns:vectornator="http://vectornator.io" xmlns:xlink="http://www.w3.org/1999/xlink">
<defs/>
<g id="svgGroup" vectornator:layerName="svgGroup">
<path d="M26.7 98.8C17.6 98.8 12.2 97.9 10.5 96.2C9.3 95 8.7 93.5 8.7 91.8L8.7 91.8C8.5 85.1 8.3 78.4 8.1 71.8C8 65.7 7.9 60 7.8 54.6C7.8 52.8 7.8 51.1 7.8 49.3C7.8 38.6 8.1 27.9 8.6 17.2C8.6 16.8 8.6 16.5 8.7 16.1C8.7 15.2 8.9 14.3 9.3 13.5C9.6 12.8 10 12.2 10.5 11.7C11.7 10.5 13.1 9.8 14.8 9.7C17.3 9.5 19.8 9.3 22.3 9.2C24.1 9.1 25.9 9.1 27.7 9.1C31.4 9.1 35 9.3 38.7 9.8C47.9 11.1 54.9 14.3 59.4 19.3C62.9 23.1 64.9 28 64.8 33.2C64.8 37.9 63.2 42.5 60.3 46.1C60.2 46.2 60.2 46.3 60.1 46.3C58.7 48.1 57 49.7 55.2 51.1C54 52 52.8 52.8 51.5 53.5C53.3 54.5 55 55.7 56.6 57C57.9 58.1 59.1 59.3 60.1 60.6C61.8 62.8 63.1 65.2 63.9 67.9C64.5 69.8 64.8 71.9 64.8 73.9C64.8 78.9 62.9 83.8 59.5 87.5C58.8 88.3 58.1 89 57.4 89.7C54.8 92.1 51.7 94 48.3 95.2C47.1 95.6 45.9 96 44.7 96.3C38.8 98 32.8 98.8 26.7 98.8ZM26.5 85.4L28.1 85.4C29.2 85.4 30.4 85.4 31.5 85.3C32.4 85.2 33.2 85.1 34.1 85C35.5 84.8 36.9 84.4 38.2 84C39.6 83.6 40.9 83 42.1 82.4C43.1 81.9 44.1 81.2 44.9 80.5C45.7 79.8 46.4 79.1 47 78.2C48 76.8 48.6 75.1 48.6 73.3C48.6 70.6 47.5 68.1 45.5 66.2C44.6 65.3 43.6 64.6 42.4 63.8C42.3 63.7 42.2 63.7 42.1 63.6C40.5 62.7 38.9 62 37.2 61.5C35.6 61 33.9 60.7 32 60.4C30 60.1 27.9 59.9 25.9 59.9C25.9 68.4 26.1 76.9 26.5 85.4ZM30 22.6L26.5 22.6C26.1 30.8 25.9 39 25.8 47.3C32.8 47.1 38.3 45.8 42.1 43.6C43.2 43 44.3 42.2 45.2 41.3C46.4 40.1 47.3 38.9 47.9 37.5C48.3 36.4 48.6 35.2 48.6 34C48.6 31.6 47.6 29.3 45.7 27.7C44.9 26.9 43.9 26.2 42.7 25.5C42 25.1 41.4 24.8 40.7 24.5C39.5 24 38.2 23.6 36.9 23.4C34.9 22.8 32.6 22.6 30 22.6Z" fill="#097bb8" fill-rule="evenodd" opacity="1" stroke="none"/>
<path d="M86.7 98L81 98C80.2 98 79.4 97.9 78.7 97.6C77.9 97.3 77.2 96.8 76.7 96.2C75.5 95 74.9 93.4 74.8 91.8L74.8 91.8C74.3 81.1 74 70.3 74 59.6C74 59.3 74 58.9 74 58.6C74 46.4 74.3 32.2 74.9 16.1C74.9 15.2 75.1 14.4 75.4 13.5C75.7 12.8 76.1 12.2 76.7 11.6C77.8 10.4 79.3 9.8 80.9 9.8C81 9.8 81 9.8 81.1 9.8L86.8 9.8C87.6 9.8 88.3 9.9 89 10.2C89.8 10.5 90.5 10.9 91.1 11.5C92.2 12.6 92.8 14 92.8 15.6L92.8 15.7C92.8 16.2 92.8 16.8 92.8 17.3C92.8 19.6 92.6 23.4 92.5 28.6C92.4 30.4 92.4 32.2 92.3 34C92.1 39.7 92 46.7 92 54.9C92 63.8 92.2 72.6 92.5 81.5L104 81.4C105.5 81.4 106.7 82 107.8 83.1C108.8 84.1 109.4 85.5 109.4 87C109.4 87.1 109.4 87.3 109.4 87.4L109.4 91.5C109.4 92.4 109.2 93.2 108.9 94C108.6 94.7 108.2 95.3 107.6 95.8C106.4 97 104.8 97.6 103.2 97.7L103.2 97.7C97.8 97.8 92.2 98 86.7 98Z" fill="#2e8e00" fill-rule="evenodd" opacity="1" stroke="none"/>
<path d="M162 98.1L156.3 98.1C154.7 98.1 153.1 97.5 151.9 96.3C151.3 95.8 150.9 95.2 150.6 94.5C150.4 94 150.2 93.5 150.2 93C148.3 94.3 146.3 95.4 144.3 96.2C141.5 97.3 138.8 98 136 98C135.8 98 135.6 98 135.5 98C133.7 98 132 97.9 130.2 97.5C127.1 96.9 124.4 95.7 122.3 93.9C121.1 92.8 120.1 91.6 119.2 90.2C118.5 89 117.8 87.7 117.3 86.2C117 85.5 116.8 84.8 116.6 84.1C116 82.1 115.5 80 115.2 77.9C114.4 73.4 114 67.8 113.8 61.2C113.7 59.1 113.7 57 113.7 54.9C113.7 44.7 114 31.7 114.5 16C114.5 15.1 114.7 14.2 115.1 13.4C115.4 12.7 115.8 12.1 116.3 11.6C117.5 10.4 118.9 9.8 120.6 9.8L126.4 9.8C127.2 9.8 128 9.9 128.8 10.2C129.5 10.5 130.2 10.9 130.7 11.5C131.8 12.6 132.4 14 132.4 15.6L132.4 15.7L132.4 16C131.8 28.7 131.5 41.3 131.5 54C131.5 56.6 131.5 59.2 131.6 61.8C131.8 68.9 132.4 74 133.3 77.2C133.5 77.8 133.7 78.4 133.9 78.9C135.2 81.7 137.2 83.2 140 83.2C141.1 83.2 142.2 83 143.2 82.5C144.9 81.8 146.8 80.6 148.8 78.8C149.4 78.3 150 77.7 150.6 77.2C150.8 69.9 151 62.4 151 54.9C151 42.1 150.7 29.4 150.1 16.6C150.1 16.4 150.1 16.2 150.1 16L150.1 15.7C150.1 14.2 150.7 12.7 151.8 11.7L151.9 11.6C153.1 10.5 154.6 9.9 156.2 9.9L161.9 9.9C162.8 9.9 163.8 10.1 164.6 10.5C165.2 10.8 165.8 11.2 166.2 11.7C167.4 12.9 168 14.5 168 16.1C168.4 27.2 168.6 37.4 168.8 46.6C168.9 50.6 168.9 54.6 168.9 58.6C168.9 69.4 168.6 80.4 168 91.7C168 92.6 167.8 93.5 167.4 94.3C167.1 95 166.7 95.6 166.2 96.1C165.1 97.5 163.7 98.1 162 98.1Z" fill="#321a81" fill-rule="evenodd" opacity="1" stroke="none"/>
<path d="M197 98.1L191.2 98.1C190.3 98.1 189.5 97.9 188.7 97.6C188 97.3 187.4 96.9 186.9 96.3C185.7 95.1 185.1 93.5 185.1 91.9L185.1 91.9L184.6 77.4L179.8 77.5C178.3 77.5 176.8 76.9 175.8 75.8C175.8 75.8 175.8 75.8 175.7 75.7C174.6 74.5 174 73.1 174 71.3L174 68C174 67.1 174.2 66.3 174.5 65.5C174.8 64.8 175.2 64.2 175.8 63.7C177 62.5 178.6 61.9 180.2 61.8L180.2 61.8L184.3 61.6L184.3 52.3C184.3 48.6 184.4 44.8 184.7 41.1C185.2 33.8 186.4 27.9 188.1 23.3C188.7 21.6 189.5 19.9 190.5 18.3C193.3 13.8 198 10.8 203.2 10.2C204.6 10 205.9 9.9 207.3 9.9C216.1 9.9 223.2 13.4 228.8 20.3C228.9 20.4 229 20.5 229.1 20.6C229.9 21.6 230.4 22.9 230.4 24.3C230.4 25.2 230.2 26 229.7 26.8C229.4 27.3 229.1 27.7 228.7 28.2C228.6 28.3 228.5 28.4 228.5 28.4L225.1 31.7C224.7 32.1 224.2 32.5 223.6 32.7C223.1 32.9 222.5 33 221.9 33C220.9 33 219.9 32.7 219.1 32.2C218.6 31.9 218.1 31.5 217.7 31C217.6 30.9 217.5 30.8 217.5 30.8C216.8 30 216 29.2 215.2 28.5C213.2 26.9 211.2 26.1 209.2 26.1C207.1 26.1 205.6 27.2 204.6 29.5C204.6 29.5 204.6 29.5 204.6 29.6C204.3 30.3 204.1 30.9 203.9 31.6C203.7 32.3 203.5 33.1 203.4 33.9C203.3 34.2 203.3 34.5 203.2 34.9C202.8 37.5 202.6 41.5 202.5 46.8C202.5 48.7 202.5 50.5 202.5 52.4L202.5 61.6C206.2 61.6 209.9 61.8 213.6 62C214.5 62 215.3 62.2 216.1 62.6C216.8 62.9 217.4 63.4 218 63.9C219.1 65 219.8 66.5 219.8 68.1L219.8 68.2L219.8 71.5C219.8 73.2 219.3 74.7 218.2 75.8C217.2 76.9 215.8 77.5 214.4 77.5L214.3 77.5L202.9 77.4L203.1 93.1C203.1 94.2 202.7 95.3 202 96.1C201.8 96.3 201.7 96.5 201.5 96.7C200.6 97.6 199.5 98.1 198.2 98.2C197.6 98 197.3 98.1 197 98.1Z" fill="#ff81a3" fill-rule="evenodd" opacity="1" stroke="none"/>
<path d="M250.7 98.1L244.9 98.1C244 98.1 243.2 97.9 242.4 97.6C241.7 97.3 241.1 96.9 240.6 96.3C239.4 95.1 238.8 93.5 238.8 91.9L238.8 91.9L238.3 77.4L233.5 77.5C232 77.5 230.5 76.9 229.5 75.8C229.5 75.8 229.5 75.8 229.4 75.7C228.3 74.5 227.7 73.1 227.7 71.3L227.7 68C227.7 67.1 227.9 66.3 228.2 65.5C228.5 64.8 228.9 64.2 229.5 63.7C230.7 62.5 232.3 61.9 233.9 61.8L233.9 61.8L238 61.6L238 52.3C238 48.6 238.1 44.8 238.4 41.1C238.9 33.8 240.1 27.9 241.8 23.3C242.4 21.6 243.2 19.9 244.2 18.3C247 13.8 251.7 10.8 256.9 10.2C258.3 10 259.6 9.9 261 9.9C269.8 9.9 276.9 13.4 282.5 20.3C282.6 20.4 282.7 20.5 282.8 20.6C283.6 21.6 284.1 22.9 284.1 24.3C284.1 25.2 283.9 26 283.4 26.8C283.1 27.3 282.8 27.7 282.4 28.2C282.3 28.3 282.2 28.4 282.2 28.4L278.8 31.7C278.4 32.1 277.9 32.5 277.3 32.7C276.8 32.9 276.2 33 275.6 33C274.6 33 273.6 32.7 272.8 32.2C272.3 31.9 271.8 31.5 271.4 31C271.3 30.9 271.2 30.8 271.2 30.8C270.5 30 269.7 29.2 268.9 28.5C266.9 26.9 264.9 26.1 262.9 26.1C260.8 26.1 259.3 27.2 258.3 29.5C258.3 29.5 258.3 29.5 258.3 29.6C258 30.3 257.8 30.9 257.6 31.6C257.4 32.3 257.2 33.1 257.1 33.9C257 34.2 257 34.5 256.9 34.9C256.5 37.5 256.3 41.5 256.2 46.8C256.2 48.7 256.2 50.5 256.2 52.4L256.2 61.6C259.9 61.6 263.6 61.8 267.3 62C268.2 62 269 62.2 269.8 62.6C270.5 62.9 271.1 63.4 271.7 63.9C272.8 65 273.5 66.5 273.5 68.1L273.5 68.2L273.5 71.5C273.5 73.2 273 74.7 271.9 75.8C270.9 76.9 269.5 77.5 268.1 77.5L268 77.5L256.6 77.4L256.8 93.1C256.8 94.2 256.4 95.3 255.7 96.1C255.5 96.3 255.4 96.5 255.2 96.7C254.3 97.6 253.2 98.1 251.9 98.2C251.3 98 251 98.1 250.7 98.1Z" fill="#097bb8" fill-rule="evenodd" opacity="1" stroke="none"/>
<path d="M298.5 43.1L295.8 43.1C295.2 43.1 294.6 42.9 294.2 42.6C294.1 42.5 293.9 42.4 293.8 42.3C292.9 41.4 292.3 36.7 291.8 28.2C291.7 26.6 291.7 25 291.6 23.4C291.5 19 291.4 15.7 291.4 13.5C291.4 12.6 291.7 11.9 292.2 11.4C292.7 10.9 293.4 10.5 294.2 10.5L294.3 10.5L299.9 10.5C300.3 10.5 300.6 10.6 301 10.7C301.4 10.8 301.7 11 302 11.3C302.5 11.7 302.7 12.3 302.8 13C302.8 13.1 302.8 13.3 302.8 13.4C302.8 13.5 302.8 13.6 302.8 13.6C302.8 14.3 302.7 16.1 302.5 19C302.5 19.2 302.5 19.4 302.5 19.6C302.3 22.6 302 27.8 301.7 35.1C301.6 36.8 301.6 38.5 301.5 40.2C301.5 41 301.2 41.7 300.7 42.2C300.7 42.2 300.7 42.2 300.6 42.3C300.1 42.8 299.3 43.1 298.5 43.1Z" fill="#2e8e00" fill-rule="evenodd" opacity="1" stroke="none"/>
<path d="M360.8 24.7L358.3 29.2C357.4 30.8 356.1 31.6 354.4 31.7C354.3 31.7 354.1 31.7 354 31.7C353.3 31.7 352.7 31.6 352.1 31.3C351.7 31.1 351.2 30.9 350.8 30.6C350.8 30.6 350.7 30.6 350.7 30.5C346.4 27.7 341.9 26.2 337.1 26.2C335.8 26.2 334.5 26.4 333.2 26.8C332 27.2 330.9 27.8 329.9 28.6C328.3 29.9 327.2 31.9 327 34C326.9 34.5 326.9 35 326.9 35.5C326.9 36.4 327.2 37.3 327.7 38.1C328.4 39.3 329.6 40.4 331.2 41.6C331.7 42 332.2 42.3 332.8 42.7C333.7 43.3 334.7 43.8 335.6 44.4C336.6 45 337.7 45.6 338.7 46.2C340.7 47.3 342.6 48.4 344.6 49.6C348.3 51.9 351.4 54.1 353.6 56.2C353.7 56.3 353.8 56.4 354 56.5C359.1 61.4 361.7 67.2 361.7 74C361.7 78.6 360.6 82.7 358.4 86.6C357.1 89 355.4 91 353.3 92.8C349.3 96.3 344.2 98.5 338.9 99C337.6 99.1 336.4 99.2 335.1 99.2C326.6 99.2 318.7 97 311.5 92.5C310.9 92.2 310.4 91.7 310 91.2C309.3 90.4 309 89.3 309 88.1C309 87.5 309.1 87 309.3 86.4C309.4 86 309.6 85.5 309.9 85C309.9 84.9 310 84.9 310 84.8C310.9 83.2 311.7 81.7 312.6 80.1C312.9 79.5 313.4 78.9 314 78.5C314.8 78 315.7 77.7 316.8 77.7C317.9 77.7 319.1 78.1 320.2 78.9C324.5 81.7 329 83.2 333.8 83.2C335.1 83.2 336.4 83 337.7 82.6C338.9 82.2 340 81.6 341 80.8C342.6 79.5 343.7 77.5 343.9 75.4C344 74.9 344 74.4 344 73.9C344 72.9 343.7 71.9 343.2 71.1C343 70.7 342.7 70.3 342.4 70C341.9 69.5 341.4 69 340.8 68.5C339 67 336.2 65.2 332.4 63.1C332.2 63 332 62.9 331.9 62.8C329.9 61.7 328 60.6 326.1 59.4C322.2 57 319.1 54.7 316.9 52.5C314.6 50.4 312.7 47.8 311.3 45C309.9 42 309.3 38.8 309.3 35.5C309.3 29 311.4 23.4 315.6 18.7C320.7 13.1 327.5 10.3 335.8 10.3C344.2 10.2 352.4 12.6 359.5 17C361 17.9 361.8 19.2 361.9 20.9C361.9 21.1 361.9 21.2 361.9 21.4C361.7 22.5 361.4 23.6 360.8 24.7L360.8 24.7Z" fill="#321a81" fill-rule="evenodd" opacity="1" stroke="none"/>
<path d="M399.5 9.9L405.2 9.9C405.9 9.9 406.6 10 407.3 10.2C408.1 10.5 408.9 10.9 409.5 11.5C410.5 12.5 411.1 13.9 411.2 15.3C411.2 15.4 411.2 15.5 411.2 15.6C411.2 16 411.2 16.3 411.2 16.7C411.2 18.3 411.1 21.1 411 25.1C411 26 410.9 26.9 410.9 27.8C410.8 29.6 410.8 31.5 410.8 33.3C410.7 39.2 410.6 46.4 410.6 54.9C410.6 63.8 410.8 72.7 411.1 81.6L432.3 81.4C433.7 81.4 435.1 81.9 436.1 83L436.2 83.1C437.1 84.1 437.7 85.3 437.8 86.6C437.8 86.8 437.8 87.1 437.8 87.3L437.8 91.4C437.8 92.2 437.6 93.1 437.3 93.9C437 94.6 436.6 95.2 436 95.7C434.9 96.8 433.4 97.5 431.8 97.6C431.7 97.6 431.7 97.6 431.6 97.6C425.8 97.9 420 98.1 414.3 98.1C409.4 98.1 404.5 98.1 399.6 98C398.7 98 397.8 97.8 397 97.4C396.4 97.1 395.8 96.7 395.3 96.2C394.1 95 393.5 93.4 393.4 91.8L393.4 91.8C392.9 80.9 392.6 69.9 392.5 59C392.5 58.3 392.5 57.6 392.5 56.9C392.5 49.2 392.6 40.4 392.9 30.4C393 25.6 393.2 20.9 393.4 16.1C393.4 14.4 394.1 12.9 395.2 11.7C396.3 10.5 397.8 9.9 399.4 9.9C399.4 9.9 399.4 9.9 399.5 9.9Z" fill="#ff81a3" fill-rule="evenodd" opacity="1" stroke="none"/>
<path d="M454.9 98.1L449.1 98.1C448.2 98.1 447.4 97.9 446.6 97.6C445.9 97.3 445.3 96.9 444.8 96.3C443.6 95.1 443 93.5 442.9 91.9L442.9 91.9C442.7 85.5 442.5 79.1 442.4 72.7C442.3 69.1 442.3 65.5 442.3 61.9C442.3 57.4 442.3 52.8 442.4 48.3C442.5 44.1 442.6 39.9 442.8 35.6C442.8 34.7 443 33.8 443.4 33C443.7 32.3 444.1 31.7 444.6 31.2C445.8 30 447.2 29.4 448.9 29.4L454.7 29.4C455.5 29.4 456.3 29.5 457.1 29.8C457.8 30.1 458.5 30.5 459 31.1C460.1 32.2 460.7 33.6 460.7 35.2L460.7 35.3C460.7 35.4 460.7 35.4 460.7 35.5C460.7 36.1 460.6 37.8 460.4 40.8C460.4 41.3 460.3 41.9 460.3 42.4C460.2 43.7 460.2 45 460.2 46.3C460.1 50.6 460 56.1 460 63C460 63.1 460 63.2 460 63.2C460 72.8 460.2 82.3 460.7 91.9L460.7 92.2C460.7 93.7 460.1 95.2 459 96.3C459 96.3 459 96.3 458.9 96.4C458.1 97.5 456.6 98.1 454.9 98.1C455 98.1 454.9 98.1 454.9 98.1ZM456.1 26.8L449.5 26.8C447.8 26.8 446.3 26.2 445.2 25C444.1 23.9 443.4 22.4 443.4 20.8L443.4 20.7L443.5 16.1C443.5 14.4 444.2 12.9 445.3 11.7C446.4 10.5 447.9 9.9 449.5 9.9L449.6 9.9L456.1 9.9C457.1 9.9 458.1 10.1 459 10.6C459.5 10.9 460.1 11.3 460.5 11.7C461.2 12.4 461.8 13.2 462 14.2C462.2 14.8 462.3 15.4 462.3 16L462.2 20.6C462.2 22.3 461.5 23.8 460.4 25C459.3 26.2 457.8 26.8 456.2 26.8C456.2 26.8 456.2 26.8 456.1 26.8Z" fill="#097bb8" fill-rule="evenodd" opacity="1" stroke="none"/>
<path d="M477.6 42.8L473.1 42.9C471.6 42.9 470.1 42.3 469.1 41.3L469 41.2C467.9 40 467.3 38.6 467.3 36.9L467.3 33.6C467.3 32.8 467.5 31.9 467.8 31.1C468.1 30.4 468.5 29.8 469.1 29.3C470.2 28.2 471.6 27.6 473.1 27.5C473.3 27.5 473.4 27.5 473.6 27.5L478 27.3L478.4 16.4C478.5 14.7 479.1 13.2 480.3 12C481.4 10.8 482.9 10.2 484.5 10.2L484.6 10.2L490.3 10.2C491.1 10.2 491.9 10.3 492.6 10.6C493.4 10.9 494 11.3 494.6 11.9C495.1 12.4 495.6 13 495.9 13.7C496.2 14.4 496.4 15.1 496.3 15.9C496.3 17.5 496.2 20.4 496.1 24.4C496.1 25.3 496 26.3 496 27.2C499.5 27.2 503.1 27.4 506.6 27.6C507.5 27.6 508.4 27.8 509.2 28.2C509.9 28.5 510.5 28.9 511 29.4C512.2 30.6 512.8 32 512.8 33.7L512.8 37C512.8 37.8 512.7 38.6 512.4 39.3C512.1 40.1 511.7 40.7 511.1 41.3C510.6 41.8 510 42.3 509.3 42.6C508.6 42.9 507.9 43.1 507.1 43L495.5 42.8C495.4 46.6 495.4 50.4 495.4 54.3C495.4 64.7 495.9 71.9 496.8 75.9C496.9 76.3 497 76.8 497.1 77.2C497.3 77.9 497.6 78.6 497.9 79.2C498.3 79.9 498.7 80.5 499.1 80.9C499.9 81.7 501.1 82.2 502.2 82.1C503.5 82.1 504.8 81.8 505.9 81.1C506.7 80.7 507.6 80.1 508.4 79.3C509.1 78.7 509.8 78 510.4 77.3C510.8 76.8 511.3 76.4 511.8 76.1C512.5 75.6 513.2 75.3 513.9 75.2C514.2 75.1 514.6 75.1 514.9 75.1C516.1 75.1 517.2 75.5 518 76.4L518.1 76.5L521.5 79.8C521.9 80.2 522.2 80.6 522.6 81.1C523 81.6 523.2 82.2 523.4 82.8C523.5 83.2 523.5 83.6 523.5 83.9C523.5 85.2 523.1 86.5 522.2 87.6C519.9 90.7 516.9 93.2 513.6 95.1C509.8 97.2 505.5 98.3 500.7 98.3C500.6 98.3 500.5 98.3 500.5 98.3C498.2 98.3 496 98 493.8 97.5C489.7 96.4 486.2 93.8 483.8 90.3C482.5 88.2 481.4 86 480.7 83.6C479.1 78.8 478.1 72.7 477.7 65.1C477.5 61.8 477.4 58.5 477.4 55.1C477.4 53.2 477.4 51.2 477.4 49.3C477.5 47 477.6 44.9 477.6 42.8Z" fill="#2e8e00" fill-rule="evenodd" opacity="1" stroke="none"/>
<path d="M533.4 42.8L528.9 42.9C527.4 42.9 525.9 42.3 524.9 41.3L524.8 41.2C523.7 40 523.1 38.6 523.1 36.9L523.1 33.6C523.1 32.8 523.3 31.9 523.6 31.1C523.9 30.4 524.3 29.8 524.9 29.3C526 28.2 527.4 27.6 528.9 27.5C529.1 27.5 529.2 27.5 529.4 27.5L533.8 27.3L534.2 16.4C534.3 14.7 534.9 13.2 536.1 12C537.2 10.8 538.7 10.2 540.3 10.2L540.4 10.2L546.1 10.2C546.9 10.2 547.7 10.3 548.4 10.6C549.2 10.9 549.8 11.3 550.4 11.9C550.9 12.4 551.4 13 551.7 13.7C552 14.4 552.2 15.1 552.1 15.9C552.1 17.5 552 20.4 551.9 24.4C551.9 25.3 551.8 26.3 551.8 27.2C555.3 27.2 558.9 27.4 562.4 27.6C563.3 27.6 564.2 27.8 565 28.2C565.7 28.5 566.3 28.9 566.8 29.4C568 30.6 568.6 32 568.6 33.7L568.6 37C568.6 37.8 568.5 38.6 568.2 39.3C567.9 40.1 567.5 40.7 566.9 41.3C566.4 41.8 565.8 42.3 565.1 42.6C564.4 42.9 563.7 43.1 562.9 43L551.3 42.8C551.2 46.6 551.2 50.4 551.2 54.3C551.2 64.7 551.7 71.9 552.6 75.9C552.7 76.3 552.8 76.8 552.9 77.2C553.1 77.9 553.4 78.6 553.7 79.2C554.1 79.9 554.5 80.5 554.9 80.9C555.7 81.7 556.9 82.2 558 82.1C559.3 82.1 560.6 81.8 561.7 81.1C562.5 80.7 563.4 80.1 564.2 79.3C564.9 78.7 565.6 78 566.2 77.3C566.6 76.8 567.1 76.4 567.6 76.1C568.3 75.6 569 75.3 569.7 75.2C570 75.1 570.4 75.1 570.7 75.1C571.9 75.1 573 75.5 573.8 76.4L573.9 76.5L577.3 79.8C577.7 80.2 578 80.6 578.4 81.1C578.8 81.6 579 82.2 579.2 82.8C579.3 83.2 579.3 83.6 579.3 83.9C579.3 85.2 578.9 86.5 578 87.6C575.7 90.7 572.7 93.2 569.4 95.1C565.6 97.2 561.3 98.3 556.5 98.3C556.4 98.3 556.3 98.3 556.3 98.3C554 98.3 551.8 98 549.6 97.5C545.5 96.4 542 93.8 539.6 90.3C538.3 88.2 537.2 86 536.5 83.6C534.9 78.8 533.9 72.7 533.5 65.1C533.3 61.8 533.2 58.5 533.2 55.1C533.2 53.2 533.2 51.2 533.2 49.3C533.3 47 533.3 44.9 533.4 42.8Z" fill="#321a81" fill-rule="evenodd" opacity="1" stroke="none"/>
<path d="M596.6 98L590.9 98C590.1 98 589.3 97.9 588.6 97.6C587.8 97.3 587.1 96.8 586.6 96.2C585.4 95 584.8 93.4 584.7 91.8L584.7 91.8C584.2 81.1 583.9 70.4 583.9 59.7C583.9 59.4 583.9 59 583.9 58.7C583.9 46.5 584.2 32.3 584.8 16.2C584.8 15.3 585 14.5 585.3 13.6C585.6 12.9 586 12.3 586.6 11.7C587.7 10.5 589.2 9.9 590.8 9.9C590.9 9.9 590.9 9.9 591 9.9L596.7 9.9C597.5 9.9 598.2 10 598.9 10.3C599.7 10.6 600.4 11 601 11.6C602.1 12.7 602.7 14.1 602.7 15.7L602.7 15.8C602.7 16.3 602.7 16.9 602.7 17.4C602.7 19.7 602.5 23.5 602.4 28.7C602.3 30.5 602.3 32.3 602.2 34.1C602.1 39.9 602 46.9 602 55C602 63.9 602.2 72.7 602.5 81.6L614 81.5C615.5 81.5 616.7 82.1 617.8 83.2C618.8 84.2 619.4 85.6 619.4 87.1C619.4 87.2 619.4 87.4 619.4 87.5L619.4 91.6C619.4 92.5 619.2 93.3 618.9 94.1C618.6 94.8 618.2 95.4 617.6 95.9C616.4 97.1 614.8 97.7 613.2 97.8L613.2 97.8C607.6 97.8 602.1 98 596.6 98Z" fill="#ff81a3" fill-rule="evenodd" opacity="1" stroke="none"/>
<path d="M641.2 64.7L638.1 64.7C638.3 66.1 638.6 67.4 638.9 68.8C639.2 70.1 639.6 71.4 640 72.5C640.1 72.8 640.2 73 640.3 73.3C640.9 74.8 641.7 76.2 642.6 77.5C644.8 80.5 648.4 82.2 652.2 82C656.3 82 660.4 80.5 664.7 77.4C665.8 76.6 666.9 76.2 668.1 76.2C668.8 76.2 669.5 76.3 670.1 76.6C670.9 76.9 671.5 77.5 672 78.2C672.1 78.4 672.2 78.5 672.3 78.7L674.8 83.2C675.4 84.3 675.7 85.4 675.7 86.4C675.7 87.2 675.5 87.9 675.2 88.6C674.9 89.3 674.4 89.9 673.7 90.4C673.5 90.5 673.4 90.6 673.2 90.7C666.1 95.1 657.9 97.5 649.6 97.4C646.4 97.4 643.1 96.9 640.1 95.8C635.8 94.2 632.1 91.3 629.4 87.6C627 84.4 625.2 80.8 624 77C621.8 70.6 620.8 62.7 620.8 53.4L620.8 53.4C620.8 49.1 621 44.8 621.6 40.5C622.9 31 625.7 23.6 630 18.3C630.4 17.8 630.9 17.2 631.4 16.7C636.2 11.8 642.3 9.3 649.7 9.3C651.6 9.3 653.5 9.4 655.4 9.8C657.7 10.2 659.7 10.8 661.6 11.7C661.9 11.8 662.2 12 662.4 12.1C666.5 14.3 669.9 17.6 672 21.7C673.3 24.2 674.2 27 674.6 29.8C674.8 31.2 674.9 32.6 674.9 34C674.9 37.9 674.1 41.9 672.6 45.5C672.5 45.8 672.4 46 672.3 46.3C670.7 49.8 668.5 52.9 665.7 55.5C665.2 56 664.6 56.5 664 57C659.8 60.5 654.7 62.8 649.2 63.8C646.6 64.5 643.9 64.7 641.2 64.7ZM642 50.9C643 50.9 644.1 50.8 645.1 50.7C646 50.6 647 50.4 647.9 50.1C649.3 49.7 650.8 49.1 652.1 48.4C654 47.3 655.6 46 656.8 44.4C658.1 42.7 659 40.8 659.6 38.7C659.9 37.5 660.1 36.2 660.1 34.9C660.1 33.7 659.9 32.4 659.6 31.2C659.3 30.2 658.9 29.2 658.3 28.4C657.2 26.7 655.4 25.5 653.3 25.3C652.9 25.2 652.4 25.2 652 25.2C647.3 25.1 643 27.9 641.2 32.3C639 36.5 637.8 42.6 637.6 50.6C638.7 50.7 639.8 50.8 641 50.9C641.3 50.9 641.7 50.9 642 50.9Z" fill="#097bb8" fill-rule="evenodd" opacity="1" stroke="none"/>
<path d="M738.5 98.1L732.8 98.1C731.9 98.1 730.9 97.9 730.1 97.5C729.5 97.2 728.9 96.8 728.5 96.3C727.3 95.1 726.7 93.5 726.7 91.9C726.3 79.2 726.1 66.6 726.1 53.9C726.1 44.4 726.2 34.9 726.4 25.5C725.2 25.5 724.1 25.5 722.9 25.5C720.7 25.5 718.7 25.5 717.1 25.5C716.4 25.5 715.7 25.5 715 25.5C714.2 25.5 713.3 25.4 712.6 25C711.9 24.7 711.2 24.2 710.7 23.7C709.5 22.6 708.9 21 708.9 19.4L708.9 19.4L708.9 16.3C708.9 15.4 709.1 14.6 709.4 13.8C709.7 13.1 710.1 12.5 710.7 12C711.9 10.8 713.5 10.2 715.1 10.1L715.1 10.1C717.8 10 720.5 9.9 723.2 9.8C726 9.7 728.9 9.7 731.9 9.7C732.9 9.7 734 9.7 735 9.7C738.3 9.7 741.6 9.7 744.9 9.8C748 9.9 750.9 9.9 753.7 10C754.1 10 754.5 10 754.9 10C755.8 10 756.7 10.2 757.5 10.6C758.2 10.9 758.8 11.3 759.3 11.8C760.5 13 761.1 14.4 761.1 16.1L761.1 19.2C761.1 20.2 760.9 21.2 760.4 22.1C760.1 22.6 759.7 23.2 759.3 23.6C758.6 24.3 757.8 24.9 756.8 25.1C756.2 25.3 755.6 25.4 755 25.4L744.4 25.3C744 36 743.9 46.7 743.9 57.4C743.9 68.9 744.2 80.4 744.7 91.8L744.7 92.1C744.7 93.6 744.1 95.1 743 96.1L742.9 96.2C741.6 97.5 740.1 98.1 738.5 98.1Z" fill="#2e8e00" fill-rule="evenodd" opacity="1" stroke="none"/>
<path d="M815.6 98.1L809.9 98.1C809 98.1 808 97.9 807.2 97.5C806.6 97.2 806 96.8 805.6 96.3C804.4 95.1 803.8 93.5 803.8 91.9C803.7 88.2 803.5 84.5 803.4 80.8C803.3 77.3 803.2 73.8 803.2 70.3C800.2 70.2 797.2 70.2 794.2 70.2C791 70.2 787.9 70.2 784.7 70.3C784.9 77.5 785.1 84.7 785.4 92L785.4 92.3C785.4 93.8 784.8 95.3 783.7 96.3L783.6 96.4C782.4 97.5 780.9 98.1 779.3 98.1L773.6 98.1C772.7 98.1 771.7 97.9 770.9 97.5C770.3 97.2 769.7 96.8 769.3 96.3C768.1 95.1 767.5 93.5 767.5 91.9C767.3 85.2 767.1 78.5 766.9 71.9C766.8 65.8 766.7 60.1 766.6 54.7C766.6 52.9 766.6 51.2 766.6 49.4C766.6 38.7 766.9 28 767.4 17.3C767.4 16.9 767.4 16.6 767.5 16.2C767.5 15.3 767.7 14.4 768.1 13.6C768.4 12.9 768.8 12.3 769.3 11.8C770.5 10.6 771.9 10 773.6 10L779.3 10C780.9 10 782.5 10.6 783.6 11.7C784.3 12.3 784.8 13.2 785.1 14.1C785.3 14.7 785.4 15.3 785.4 15.9L785.4 16.2C785 25.5 784.7 34.8 784.6 44.1C784.6 47.3 784.5 50.6 784.5 53.8C787.7 53.7 791 53.7 794.2 53.7C797.1 53.7 800 53.7 802.9 53.8C802.9 47.2 803 40.7 803.1 34.1C803.2 28.1 803.4 22.2 803.7 16.2C803.7 15.3 803.9 14.4 804.3 13.6C804.6 12.9 805 12.3 805.5 11.8C806.7 10.6 808.1 10 809.8 10L815.5 10C817.1 10 818.7 10.6 819.8 11.7C820.5 12.3 821 13.2 821.3 14.1C821.5 14.7 821.6 15.3 821.6 15.9L821.6 16.2C821 28.2 820.7 40.5 820.7 53.1C820.7 65.3 821 77.4 821.5 89.5C821.5 90.3 821.6 91.2 821.6 92L821.6 92.3C821.6 93.8 821 95.3 819.9 96.3L819.8 96.4C818.8 97.5 817.2 98.1 815.6 98.1Z" fill="#321a81" fill-rule="evenodd" opacity="1" stroke="none"/>
<path d="M845.3 98.1L839.5 98.1C838.6 98.1 837.8 97.9 837 97.6C836.3 97.3 835.7 96.9 835.2 96.3C834 95.1 833.4 93.5 833.3 91.9L833.3 91.9C833.1 85.5 832.9 79.1 832.8 72.7C832.7 69.1 832.7 65.5 832.7 61.9C832.7 57.4 832.7 52.8 832.8 48.3C832.9 44.1 833 39.9 833.2 35.6C833.2 34.7 833.4 33.8 833.8 33C834.1 32.3 834.5 31.7 835 31.2C836.2 30 837.6 29.4 839.3 29.4L845.1 29.4C845.9 29.4 846.7 29.5 847.5 29.8C848.2 30.1 848.9 30.5 849.4 31.1C850.5 32.2 851.1 33.6 851.1 35.2L851.1 35.3C851.1 35.4 851.1 35.4 851.1 35.5C851.1 36.1 851 37.8 850.8 40.8C850.8 41.3 850.7 41.9 850.7 42.4C850.6 43.7 850.6 45 850.6 46.3C850.5 50.6 850.4 56.1 850.4 63C850.4 63.1 850.4 63.2 850.4 63.2C850.4 72.8 850.6 82.3 851.1 91.9L851.1 92.2C851.1 93.7 850.5 95.2 849.4 96.3C849.4 96.3 849.4 96.3 849.3 96.4C848.5 97.5 847 98.1 845.3 98.1C845.4 98.1 845.4 98.1 845.3 98.1ZM846.6 26.8L840 26.8C838.3 26.8 836.8 26.2 835.7 25C834.6 23.9 833.9 22.4 833.9 20.8L833.9 20.7L834 16.1C834 14.4 834.7 12.9 835.8 11.7C836.9 10.5 838.4 9.9 840 9.9L840.1 9.9L846.6 9.9C847.6 9.9 848.6 10.1 849.5 10.6C850 10.9 850.6 11.3 851 11.7C851.7 12.4 852.3 13.2 852.5 14.2C852.7 14.8 852.8 15.4 852.8 16L852.7 20.6C852.7 22.3 852 23.8 850.9 25C849.8 26.2 848.3 26.8 846.6 26.8L846.6 26.8Z" fill="#ff81a3" fill-rule="evenodd" opacity="1" stroke="none"/>
<path d="M911.1 98.1L905.4 98.1C903.8 98.1 902.2 97.5 901.1 96.4C900.4 95.8 899.9 94.9 899.6 94C899.4 93.4 899.3 92.8 899.3 92.2L899.3 91.9C899.9 79.3 900.2 66.6 900.2 54C900.2 52 900.2 50 900.1 47.9C900 43.7 899.8 40.2 899.6 37.2C899.5 36.1 899.3 35 899.1 33.9C898.7 31.5 898.1 29.6 897.3 28.2C896.2 26.1 894.5 24.9 892.3 24.7C892.1 24.7 891.8 24.7 891.6 24.7C888.6 24.7 885.1 26.7 881 30.7C880.8 38 880.6 45.5 880.6 53C880.6 65.2 880.9 77.3 881.4 89.4C881.4 90.2 881.5 91.1 881.5 91.9L881.5 92.2C881.5 93.7 880.9 95.2 879.8 96.2L879.7 96.3C878.5 97.4 877 98 875.4 98L869.7 98C868.8 98 868 97.8 867.2 97.5C866.5 97.2 865.9 96.8 865.4 96.2C864.2 95 863.6 93.4 863.6 91.8L863.6 91.8C863.2 80.5 863 70.3 862.8 61C862.7 57 862.7 53 862.7 49C862.7 38.3 863 27.4 863.5 16.2C863.5 15.3 863.7 14.4 864.1 13.6C864.4 12.9 864.8 12.3 865.3 11.8C866.5 10.6 867.9 10 869.6 10L875.3 10C876.9 10 878.5 10.6 879.7 11.8C880.7 12.7 881.3 13.9 881.5 15.2C882.8 14.3 884.1 13.5 885.5 12.8C888.8 11 892.5 10.1 896.3 10.1C900.5 10.1 904.1 10.9 906.9 12.5C907.8 13 908.6 13.6 909.4 14.2C911.7 16.2 913.5 19.1 914.8 22.9C915.3 24.5 915.8 26.2 916.1 27.9C916.5 30 916.9 32.1 917.1 34.2C917.7 38.9 918 44.5 918 50.9C918 51.3 918 51.8 918 52.2C918 58.5 917.9 64.8 917.8 71C917.7 78 917.5 84.9 917.2 91.9C917.2 93.6 916.5 95.1 915.4 96.3C914.3 97.5 912.8 98.1 911.2 98.1C911.1 98.1 911.1 98.1 911.1 98.1Z" fill="#097bb8" fill-rule="evenodd" opacity="1" stroke="none"/>
<path d="M974.7 98.1L969 98.1C967.4 98.1 965.8 97.5 964.6 96.3C963.4 95.1 962.8 93.7 962.8 92C962.8 89.6 962.7 87.2 962.4 84.8C961.8 79.5 960.6 75.2 958.7 72C956.4 67.8 952.4 64.8 947.7 63.6C947.4 63.5 947.1 63.4 946.7 63.4C947.2 72.7 947.5 82.3 947.5 92.1C947.5 92.8 947.4 93.6 947.1 94.3C946.8 95.1 946.3 95.8 945.7 96.4C944.5 97.5 943 98.1 941.4 98.1L935.7 98.1C934.8 98.1 933.8 97.9 933 97.5C932.4 97.2 931.8 96.8 931.4 96.3C930.2 95.1 929.6 93.5 929.6 91.9C929.2 81.1 929 70.3 928.9 59.4C928.9 55.9 928.9 52.5 928.9 49C928.9 38.3 929.2 27.4 929.7 16.2C929.7 15.3 929.9 14.4 930.3 13.6C930.6 12.9 931 12.3 931.5 11.8C932.7 10.6 934.1 10 935.8 10L941.5 10C942.2 10 942.9 10.1 943.6 10.3C944.4 10.6 945.2 11 945.8 11.6C946.4 12.1 946.8 12.7 947.1 13.4C947.4 14 947.5 14.7 947.5 15.4C947.5 16.1 947.5 16.9 947.5 17.6C947.4 21.9 947.2 30.9 946.9 44.6C951.7 43.7 956 40.7 958.6 36.5C958.8 36.2 959 35.9 959.1 35.6C960 34 960.7 32.3 961.2 30.5C962.2 27.2 962.7 23.1 962.8 18.3C962.8 17.5 962.8 16.7 962.8 15.9C962.8 14.3 963.4 12.8 964.5 11.7L964.6 11.6C965.8 10.4 967.4 9.8 969 9.8L974.7 9.8C976.3 9.8 977.9 10.4 979.1 11.6L979.1 11.6C980.3 12.8 980.9 14.3 980.9 16C980.9 21.8 980 27.6 978.1 33.1C977.6 34.6 977 36.1 976.3 37.5C973.6 43.1 969.7 48 964.7 51.8C963.7 52.5 962.7 53.3 961.7 53.9C968.4 58.3 973.3 63.9 976.5 70.8C978.5 75.2 979.8 79.8 980.4 84.6C980.7 87 980.8 89.4 980.8 91.8C980.8 92.7 980.6 93.5 980.3 94.4C980 95.1 979.6 95.7 979 96.3C977.9 97.4 976.4 98.1 974.7 98.1L974.7 98.1Z" fill="#2e8e00" fill-rule="evenodd" opacity="1" stroke="none"/>
<path d="M1006.6 64.7L1003.5 64.7C1003.7 66.1 1004 67.4 1004.3 68.8C1004.6 70.1 1005 71.4 1005.4 72.5C1005.5 72.8 1005.6 73 1005.7 73.3C1006.3 74.8 1007.1 76.2 1008 77.5C1010.2 80.5 1013.8 82.2 1017.6 82C1021.7 82 1025.8 80.5 1030.1 77.4C1031.2 76.6 1032.3 76.2 1033.5 76.2C1034.2 76.2 1034.9 76.3 1035.5 76.6C1036.3 76.9 1036.9 77.5 1037.4 78.2C1037.5 78.4 1037.6 78.5 1037.7 78.7L1040.2 83.2C1040.8 84.3 1041.1 85.4 1041.1 86.4C1041.1 87.2 1040.9 87.9 1040.6 88.6C1040.3 89.3 1039.8 89.9 1039.1 90.4C1038.9 90.5 1038.8 90.6 1038.6 90.7C1031.5 95.1 1023.3 97.5 1015 97.4C1011.8 97.4 1008.5 96.9 1005.5 95.8C1001.2 94.2 997.5 91.3 994.8 87.6C992.4 84.4 990.6 80.8 989.4 77C987.3 70.6 986.2 62.7 986.2 53.4L986.2 53.4C986.2 49.1 986.4 44.8 987 40.5C988.3 31 991.1 23.6 995.4 18.3C995.8 17.8 996.3 17.2 996.8 16.7C1001.6 11.8 1007.7 9.3 1015.1 9.3C1017 9.3 1018.9 9.4 1020.8 9.8C1023.1 10.2 1025.1 10.8 1027 11.7C1027.3 11.8 1027.6 12 1027.8 12.1C1031.9 14.3 1035.3 17.6 1037.4 21.7C1038.7 24.2 1039.6 27 1040 29.8C1040.2 31.2 1040.3 32.6 1040.3 34C1040.3 37.9 1039.5 41.9 1038 45.5C1037.9 45.8 1037.8 46 1037.7 46.3C1036.1 49.8 1033.9 52.9 1031.1 55.5C1030.6 56 1030 56.5 1029.4 57C1025.2 60.5 1020.1 62.8 1014.6 63.8C1011.9 64.5 1009.3 64.7 1006.6 64.7ZM1007.4 50.9C1008.4 50.9 1009.5 50.8 1010.5 50.7C1011.4 50.6 1012.4 50.4 1013.3 50.1C1014.7 49.7 1016.2 49.1 1017.5 48.4C1019.4 47.3 1021 46 1022.2 44.4C1023.5 42.7 1024.4 40.8 1025 38.7C1025.3 37.5 1025.5 36.2 1025.5 34.9C1025.5 33.7 1025.3 32.4 1025 31.2C1024.7 30.2 1024.3 29.2 1023.7 28.4C1022.6 26.7 1020.8 25.5 1018.7 25.3C1018.3 25.2 1017.8 25.2 1017.4 25.2C1012.7 25.1 1008.4 27.9 1006.6 32.3C1004.4 36.5 1003.2 42.6 1003 50.6C1004.1 50.7 1005.2 50.8 1006.4 50.9C1006.7 50.9 1007 50.9 1007.4 50.9Z" fill="#321a81" fill-rule="evenodd" opacity="1" stroke="none"/>
<path d="M1095.6 98.1L1089.9 98.1C1088.3 98.1 1086.7 97.5 1085.5 96.3C1084.3 95.1 1083.7 93.7 1083.7 92L1083.7 89.3C1083.7 85.1 1082.9 81.7 1081.4 79.2C1080 76.9 1077.9 75.2 1075.3 74.3C1073.7 73.8 1072.1 73.4 1070.4 73.2C1069.2 73 1067.9 72.9 1066.7 72.9C1067.1 79.3 1067.3 85.7 1067.3 92.1C1067.3 92.8 1067.2 93.6 1066.9 94.3C1066.6 95.1 1066.1 95.8 1065.5 96.4C1064.3 97.5 1062.8 98.1 1061.2 98.1L1055.5 98.1C1054.6 98.1 1053.8 97.9 1053 97.6C1052.3 97.3 1051.7 96.9 1051.2 96.3C1050 95.1 1049.4 93.5 1049.4 91.9L1049.4 91.9C1049 80.6 1048.8 70.4 1048.6 61.1C1048.5 57.1 1048.5 53.1 1048.5 49.1C1048.5 38.4 1048.8 27.5 1049.3 16.3C1049.3 15.5 1049.5 14.7 1049.8 14C1050.1 13.2 1050.6 12.5 1051.1 12C1052.2 10.9 1053.6 10.1 1055.2 10C1057.5 9.7 1059.9 9.5 1062.2 9.4C1063.9 9.3 1065.6 9.3 1067.2 9.3C1071.5 9.3 1075.8 9.8 1080 10.9C1081.2 11.2 1082.5 11.5 1083.7 11.9C1089.5 13.6 1094.3 16.8 1098 21.6C1099.8 23.9 1101.3 26.4 1102.3 29.1C1103.2 31.6 1103.7 34.3 1103.7 37C1103.7 42.9 1102.2 48.4 1099.1 53.7C1097 57.3 1094.2 60.5 1091 63.1C1090 63.9 1088.9 64.7 1087.9 65.4C1091.2 67.2 1094.1 69.7 1096.4 72.6C1099.6 76.6 1101.4 81.4 1101.8 87C1101.9 87.8 1101.9 88.7 1101.9 89.5L1101.8 92.1C1101.8 93 1101.6 93.8 1101.3 94.7C1101 95.4 1100.6 96 1100 96.6C1098.8 97.5 1097.4 98.1 1095.6 98.1ZM1066.5 52.9L1066.6 59.7C1068.4 59.4 1070.1 58.9 1071.8 58.3C1073.2 57.8 1074.6 57.1 1076 56.3C1079.6 54.2 1082.3 51.6 1084.1 48.5C1085 47.1 1085.6 45.5 1086.1 44C1086.6 42.5 1086.8 40.9 1086.8 39.3C1086.8 36.2 1085.8 33.1 1083.9 30.7C1083.7 30.5 1083.6 30.3 1083.4 30C1082.1 28.4 1080.4 27 1078.5 26C1077.2 25.3 1075.7 24.6 1074 24.1C1073.8 24 1073.5 24 1073.3 23.9C1072.2 23.6 1071.1 23.4 1070 23.2C1069.1 23.1 1068.1 23 1067.1 23C1066.7 32.9 1066.5 42.9 1066.5 52.9Z" fill="#ff81a3" fill-rule="evenodd" opacity="1" stroke="none"/>
<path d="M1160 24.2L1157.5 28.7C1156.6 30.3 1155.3 31.1 1153.6 31.2C1153.5 31.2 1153.3 31.2 1153.2 31.2C1152.5 31.2 1151.9 31.1 1151.3 30.8C1150.9 30.6 1150.4 30.4 1150 30.1C1150 30.1 1149.9 30.1 1149.9 30C1145.6 27.2 1141.1 25.7 1136.3 25.7C1135 25.7 1133.7 25.9 1132.4 26.3C1131.2 26.7 1130.1 27.3 1129.1 28.1C1127.5 29.4 1126.4 31.4 1126.2 33.5C1126.1 34 1126.1 34.5 1126.1 35C1126.1 35.9 1126.4 36.8 1126.9 37.6C1127.6 38.8 1128.8 39.9 1130.4 41.1C1130.9 41.5 1131.4 41.8 1132 42.2C1132.9 42.8 1133.9 43.3 1134.8 43.9C1135.8 44.5 1136.9 45.1 1137.9 45.7C1139.9 46.8 1141.8 47.9 1143.8 49.1C1147.5 51.4 1150.6 53.6 1152.8 55.7C1152.9 55.8 1153 55.9 1153.2 56C1158.3 60.9 1160.9 66.7 1160.9 73.5C1160.9 78.1 1159.8 82.2 1157.6 86.1C1156.3 88.5 1154.6 90.5 1152.5 92.3C1148.5 95.8 1143.4 98 1138.1 98.5C1136.8 98.6 1135.6 98.7 1134.3 98.7C1125.8 98.7 1117.9 96.5 1110.7 92C1110.1 91.7 1109.6 91.2 1109.2 90.7C1108.5 89.9 1108.2 88.8 1108.2 87.6C1108.2 87 1108.3 86.5 1108.5 85.9C1108.6 85.5 1108.8 85 1109.1 84.5C1109.1 84.4 1109.2 84.4 1109.2 84.3C1110.1 82.7 1110.9 81.2 1111.8 79.6C1112.1 79 1112.6 78.4 1113.2 78C1114 77.5 1114.9 77.2 1116 77.2C1117.1 77.2 1118.3 77.6 1119.4 78.4C1123.7 81.2 1128.2 82.7 1133 82.7C1134.3 82.7 1135.6 82.5 1136.9 82.1C1138.1 81.7 1139.2 81.1 1140.2 80.3C1141.8 79 1142.9 77 1143.1 74.9C1143.2 74.4 1143.2 73.9 1143.2 73.4C1143.2 72.4 1142.9 71.4 1142.4 70.6C1142.2 70.2 1141.9 69.8 1141.6 69.5C1141.1 69 1140.6 68.5 1140 68C1138.2 66.5 1135.4 64.7 1131.6 62.6C1131.4 62.5 1131.2 62.4 1131.1 62.3C1129.1 61.2 1127.2 60.1 1125.3 58.9C1121.4 56.5 1118.3 54.2 1116.1 52C1113.8 49.9 1111.9 47.3 1110.5 44.5C1109.1 41.5 1108.5 38.3 1108.5 35C1108.5 28.5 1110.6 22.9 1114.8 18.2C1119.9 12.6 1126.7 9.8 1135 9.8C1143.4 9.7 1151.6 12.1 1158.7 16.5C1160.2 17.4 1161 18.7 1161.1 20.4C1161.1 20.6 1161.1 20.7 1161.1 20.9C1160.9 22 1160.6 23.1 1160 24.2L1160 24.2Z" fill="#097bb8" fill-rule="evenodd" opacity="1" stroke="none"/>
</g>
</svg>
